<svg xmlns="http://www.w3.org/2000/svg" viewBox="0 0 512 512" role="img" aria-labelledby="title desc">
  <title id="title">OmicOS-BixBench sticker</title>
  <desc id="desc">OmicVerse repository hex sticker for OmicOS-BixBench.</desc>
  <defs>
    <linearGradient id="bg" x1="112" y1="90" x2="398" y2="430" gradientUnits="userSpaceOnUse">
      <stop offset="0" stop-color="#050706"/>
      <stop offset=".58" stop-color="#020403"/>
      <stop offset="1" stop-color="#000000"/>
    </linearGradient>
  </defs>
  <polygon points="256,34 450,146 450,368 256,480 62,368 62,146" fill="#000000" opacity=".34"/>
  <polygon points="256,22 458,139 458,373 256,490 54,373 54,139" fill="url(#bg)" stroke="#0B0F0A" stroke-width="19" stroke-linejoin="round"/>
  <polygon points="256,22 458,139 458,373 256,490 54,373 54,139" fill="none" stroke="#E8FFE0" stroke-width="12" stroke-linejoin="round"/>
  <g opacity=".22" stroke="#37C96B" stroke-width="2.2">
    <path d="M112 166h288M100 222h312M100 278h312M112 334h288"/>
    <path d="M152 126v236M204 104v274M256 96v286M308 104v274M360 126v236"/>
  </g>
  <g id="motif">
    <rect x="128" y="154" width="256" height="170" rx="16" fill="#FFFFFF" opacity=".12" stroke="#FFFFFF" stroke-width="5"/>
    <path d="M154 196h84M154 240h128M154 284h70" stroke="#FFFFFF" stroke-width="7" stroke-linecap="round"/>
    <path d="M308 184l40 36-40 36" fill="none" stroke="#00A6D6" stroke-width="9" stroke-linecap="round" stroke-linejoin="round"/>
    <rect x="286" y="268" width="62" height="28" rx="6" fill="#FFD43B"/>
    <path d="M158 356h188M158 356l26-22M158 356l26 22" stroke="#34C759" stroke-width="7" stroke-linecap="round"/>
  </g>
  <path id="label" d="M306.78,374.95 Q308.13,374.17 308.48,373.19 Q308.83,372.19 308.16,371.04 Q307.51,369.90 306.47,369.71 Q305.43,369.50 304.08,370.28 L300.94,372.10 L303.64,376.77 L306.78,374.95 Z M312.54,384.49 Q314.25,383.50 314.70,382.28 Q315.15,381.05 314.31,379.59 Q313.48,378.15 312.21,377.93 Q310.94,377.71 309.21,378.71 L305.87,380.64 L309.20,386.41 L312.54,384.49 Z M313.25,373.50 Q315.39,372.98 317.22,373.83 Q319.05,374.68 320.26,376.76 Q322.10,379.95 320.85,382.77 Q319.60,385.58 315.19,388.12 L305.75,393.57 L293.01,371.51 L301.55,366.58 Q306.15,363.92 309.01,364.12 Q311.88,364.32 313.64,367.38 Q314.57,368.99 314.47,370.56 Q314.37,372.12 313.25,373.50 Z M319.03,363.84 L324.31,360.79 L333.87,377.34 L328.58,380.39 L319.03,363.84 Z M315.30,357.40 L320.59,354.34 L323.08,358.66 L317.80,361.71 L315.30,357.40 Z M338.24,363.52 L327.61,358.89 L333.21,355.65 L339.42,358.60 L340.02,351.72 L345.62,348.49 L344.30,359.99 L355.47,364.87 L349.87,368.10 L343.12,365.02 L342.47,372.37 L336.87,375.61 L338.24,363.52 Z M359.73,344.38 Q361.08,343.60 361.43,342.61 Q361.79,341.62 361.12,340.47 Q360.46,339.33 359.42,339.13 Q358.39,338.93 357.04,339.71 L353.89,341.52 L356.59,346.19 L359.73,344.38 Z M365.50,353.91 Q367.21,352.92 367.66,351.70 Q368.10,350.48 367.26,349.02 Q366.43,347.58 365.16,347.36 Q363.89,347.14 362.16,348.13 L358.82,350.06 L362.16,355.84 L365.50,353.91 Z M366.21,342.92 Q368.35,342.40 370.18,343.26 Q372.01,344.11 373.21,346.19 Q375.05,349.38 373.80,352.19 Q372.55,355.00 368.14,357.55 L358.71,363.00 L345.97,340.93 L354.51,336.00 Q359.10,333.35 361.97,333.55 Q364.83,333.75 366.60,336.81 Q367.53,338.42 367.42,339.98 Q367.32,341.55 366.21,342.92 Z M393.25,331.96 L394.12,333.47 L381.75,340.61 Q383.02,342.36 384.71,342.63 Q386.40,342.89 388.47,341.70 Q390.14,340.73 391.60,339.23 Q393.07,337.72 394.34,335.65 L396.69,339.72 Q395.22,341.52 393.55,342.96 Q391.89,344.41 390.01,345.50 Q385.52,348.09 381.71,347.24 Q377.90,346.40 375.52,342.27 Q373.19,338.23 374.29,334.50 Q375.40,330.77 379.69,328.29 Q383.59,326.04 387.28,327.04 Q390.98,328.03 393.25,331.96 Z M386.80,333.34 Q385.93,331.84 384.51,331.42 Q383.10,331.00 381.68,331.82 Q380.14,332.71 379.68,334.13 Q379.22,335.55 379.93,337.31 L386.80,333.34 Z M412.87,318.29 L418.69,328.36 L413.37,331.43 L412.43,329.79 L408.92,323.72 Q407.68,321.58 407.12,320.82 Q406.56,320.06 406.10,319.82 Q405.49,319.48 404.79,319.50 Q404.09,319.51 403.41,319.91 Q401.75,320.86 401.55,322.69 Q401.34,324.51 402.64,326.77 L407.34,334.92 L402.06,337.97 L392.50,321.42 L397.79,318.37 L399.19,320.79 Q399.55,318.65 400.50,317.19 Q401.45,315.73 403.07,314.79 Q405.94,313.13 408.44,314.03 Q410.94,314.93 412.87,318.29 Z M427.72,301.78 L430.21,306.09 Q428.70,305.98 427.41,306.25 Q426.12,306.52 424.95,307.20 Q422.74,308.48 422.25,310.48 Q421.76,312.48 423.10,314.80 Q424.44,317.13 426.42,317.71 Q428.40,318.29 430.62,317.01 Q431.86,316.29 432.76,315.28 Q433.66,314.26 434.19,312.99 L436.69,317.32 Q435.71,318.50 434.57,319.46 Q433.42,320.43 432.14,321.17 Q427.66,323.76 423.80,322.92 Q419.95,322.08 417.59,317.99 Q415.22,313.89 416.43,310.14 Q417.63,306.38 422.11,303.80 Q423.41,303.05 424.80,302.55 Q426.19,302.04 427.72,301.78 Z M452.35,295.49 L458.17,305.57 L452.85,308.64 L451.91,307.00 L448.42,300.96 Q447.16,298.79 446.60,298.03 Q446.04,297.27 445.58,297.02 Q444.97,296.68 444.27,296.70 Q443.57,296.72 442.89,297.11 Q441.23,298.07 441.03,299.90 Q440.82,301.72 442.12,303.98 L446.82,312.12 L441.54,315.17 L428.26,292.18 L433.55,289.13 L438.67,297.99 Q439.03,295.86 439.98,294.40 Q440.93,292.93 442.55,291.99 Q445.42,290.34 447.92,291.24 Q450.42,292.14 452.35,295.49 Z" fill="#FFFFFF"/>
</svg>
