<?xml version="1.0" encoding="utf-8" standalone="no"?>
<!DOCTYPE svg PUBLIC "-//W3C//DTD SVG 1.1//EN"
  "http://www.w3.org/Graphics/SVG/1.1/DTD/svg11.dtd">
<svg xmlns:xlink="http://www.w3.org/1999/xlink" width="288pt" height="288pt" viewBox="0 0 288 288" xmlns="http://www.w3.org/2000/svg" version="1.1">
 <metadata>
  <rdf:RDF xmlns:dc="http://purl.org/dc/elements/1.1/" xmlns:cc="http://creativecommons.org/ns#" xmlns:rdf="http://www.w3.org/1999/02/22-rdf-syntax-ns#">
   <cc:Work>
    <dc:type rdf:resource="http://purl.org/dc/dcmitype/StillImage"/>
    <dc:date>2026-05-23T18:24:15.955732</dc:date>
    <dc:format>image/svg+xml</dc:format>
    <dc:creator>
     <cc:Agent>
      <dc:title>Matplotlib v3.10.8, https://matplotlib.org/</dc:title>
     </cc:Agent>
    </dc:creator>
   </cc:Work>
  </rdf:RDF>
 </metadata>
 <defs>
  <style type="text/css">*{stroke-linejoin: round; stroke-linecap: butt}</style>
 </defs>
 <g id="figure_1">
  <g id="patch_1">
   <path d="M 0 288 
L 288 288 
L 288 0 
L 0 0 
z
" style="fill: #ffffff"/>
  </g>
  <g id="axes_1">
   <g id="patch_2">
    <path d="M 244.8 135.36 
C 244.8 122.123065 242.192612 109.014843 237.127057 96.78551 
C 232.061501 84.556177 224.63629 73.443563 215.276364 64.083636 
C 205.916437 54.72371 194.803823 47.298499 182.57449 42.232943 
C 170.345157 37.167388 157.236935 34.56 144 34.56 
C 130.763065 34.56 117.654843 37.167388 105.42551 42.232943 
C 93.196177 47.298499 82.083563 54.72371 72.723636 64.083636 
C 63.36371 73.443563 55.938499 84.556177 50.872943 96.78551 
C 45.807388 109.014843 43.2 122.123065 43.2 135.36 
C 43.2 148.596935 45.807388 161.705157 50.872943 173.93449 
C 55.938499 186.163823 63.36371 197.276437 72.723636 206.636364 
C 82.083563 215.99629 93.196177 223.421501 105.42551 228.487057 
C 117.654843 233.552612 130.763065 236.16 144 236.16 
C 157.236935 236.16 170.345157 233.552612 182.57449 228.487057 
C 194.803823 223.421501 205.916437 215.99629 215.276364 206.636364 
C 224.63629 197.276437 232.061501 186.163823 237.127057 173.93449 
C 242.192612 161.705157 244.8 148.596935 244.8 135.36 
M 144 135.36 
C 144 135.36 144 135.36 144 135.36 
C 144 135.36 144 135.36 144 135.36 
C 144 135.36 144 135.36 144 135.36 
C 144 135.36 144 135.36 144 135.36 
C 144 135.36 144 135.36 144 135.36 
C 144 135.36 144 135.36 144 135.36 
C 144 135.36 144 135.36 144 135.36 
C 144 135.36 144 135.36 144 135.36 
C 144 135.36 144 135.36 144 135.36 
C 144 135.36 144 135.36 144 135.36 
C 144 135.36 144 135.36 144 135.36 
C 144 135.36 144 135.36 144 135.36 
C 144 135.36 144 135.36 144 135.36 
C 144 135.36 144 135.36 144 135.36 
C 144 135.36 144 135.36 144 135.36 
C 144 135.36 144 135.36 144 135.36 
z
" style="fill: #ffffff"/>
   </g>
   <g id="matplotlib.axis_1">
    <g id="xtick_1">
     <g id="line2d_1">
      <path d="M 144 135.36 
L 244.8 135.36 
" clip-path="url(#pfa11f0b1e4)" style="fill: none; stroke-dasharray: 0.8,1.32; stroke-dashoffset: 0; stroke: #888888; stroke-opacity: 0.55; stroke-width: 0.8"/>
     </g>
    </g>
    <g id="xtick_2">
     <g id="line2d_2">
      <path d="M 144 135.36 
L 175.148913 39.493503 
" clip-path="url(#pfa11f0b1e4)" style="fill: none; stroke-dasharray: 0.8,1.32; stroke-dashoffset: 0; stroke: #888888; stroke-opacity: 0.55; stroke-width: 0.8"/>
     </g>
    </g>
    <g id="xtick_3">
     <g id="line2d_3">
      <path d="M 144 135.36 
L 62.451087 76.111247 
" clip-path="url(#pfa11f0b1e4)" style="fill: none; stroke-dasharray: 0.8,1.32; stroke-dashoffset: 0; stroke: #888888; stroke-opacity: 0.55; stroke-width: 0.8"/>
     </g>
    </g>
    <g id="xtick_4">
     <g id="line2d_4">
      <path d="M 144 135.36 
L 62.451087 194.608753 
" clip-path="url(#pfa11f0b1e4)" style="fill: none; stroke-dasharray: 0.8,1.32; stroke-dashoffset: 0; stroke: #888888; stroke-opacity: 0.55; stroke-width: 0.8"/>
     </g>
    </g>
    <g id="xtick_5">
     <g id="line2d_5">
      <path d="M 144 135.36 
L 175.148913 231.226497 
" clip-path="url(#pfa11f0b1e4)" style="fill: none; stroke-dasharray: 0.8,1.32; stroke-dashoffset: 0; stroke: #888888; stroke-opacity: 0.55; stroke-width: 0.8"/>
     </g>
    </g>
   </g>
   <g id="matplotlib.axis_2">
    <g id="ytick_1">
     <g id="line2d_6">
      <path d="M 144 135.36 
C 144 135.36 144 135.36 144 135.36 
C 144 135.36 144 135.36 144 135.36 
C 144 135.36 144 135.36 144 135.36 
C 144 135.36 144 135.36 144 135.36 
C 144 135.36 144 135.36 144 135.36 
C 144 135.36 144 135.36 144 135.36 
C 144 135.36 144 135.36 144 135.36 
C 144 135.36 144 135.36 144 135.36 
C 144 135.36 144 135.36 144 135.36 
C 144 135.36 144 135.36 144 135.36 
C 144 135.36 144 135.36 144 135.36 
C 144 135.36 144 135.36 144 135.36 
C 144 135.36 144 135.36 144 135.36 
C 144 135.36 144 135.36 144 135.36 
C 144 135.36 144 135.36 144 135.36 
C 144 135.36 144 135.36 144 135.36 
" clip-path="url(#pfa11f0b1e4)" style="fill: none; stroke-dasharray: 0.8,1.32; stroke-dashoffset: 0; stroke: #888888; stroke-opacity: 0.55; stroke-width: 0.8"/>
     </g>
     <g id="text_1">
      <!-- 80 -->
      <g style="fill: #666666" transform="translate(144 133.69625) scale(0.08 -0.08)">
       <defs>
        <path id="DejaVuSans-38" d="M 2034 2216 
Q 1584 2216 1326 1975 
Q 1069 1734 1069 1313 
Q 1069 891 1326 650 
Q 1584 409 2034 409 
Q 2484 409 2743 651 
Q 3003 894 3003 1313 
Q 3003 1734 2745 1975 
Q 2488 2216 2034 2216 
z
M 1403 2484 
Q 997 2584 770 2862 
Q 544 3141 544 3541 
Q 544 4100 942 4425 
Q 1341 4750 2034 4750 
Q 2731 4750 3128 4425 
Q 3525 4100 3525 3541 
Q 3525 3141 3298 2862 
Q 3072 2584 2669 2484 
Q 3125 2378 3379 2068 
Q 3634 1759 3634 1313 
Q 3634 634 3220 271 
Q 2806 -91 2034 -91 
Q 1263 -91 848 271 
Q 434 634 434 1313 
Q 434 1759 690 2068 
Q 947 2378 1403 2484 
z
M 1172 3481 
Q 1172 3119 1398 2916 
Q 1625 2713 2034 2713 
Q 2441 2713 2670 2916 
Q 2900 3119 2900 3481 
Q 2900 3844 2670 4047 
Q 2441 4250 2034 4250 
Q 1625 4250 1398 4047 
Q 1172 3844 1172 3481 
z
" transform="scale(0.015625)"/>
        <path id="DejaVuSans-30" d="M 2034 4250 
Q 1547 4250 1301 3770 
Q 1056 3291 1056 2328 
Q 1056 1369 1301 889 
Q 1547 409 2034 409 
Q 2525 409 2770 889 
Q 3016 1369 3016 2328 
Q 3016 3291 2770 3770 
Q 2525 4250 2034 4250 
z
M 2034 4750 
Q 2819 4750 3233 4129 
Q 3647 3509 3647 2328 
Q 3647 1150 3233 529 
Q 2819 -91 2034 -91 
Q 1250 -91 836 529 
Q 422 1150 422 2328 
Q 422 3509 836 4129 
Q 1250 4750 2034 4750 
z
" transform="scale(0.015625)"/>
       </defs>
       <use xlink:href="#DejaVuSans-38"/>
       <use xlink:href="#DejaVuSans-30" transform="translate(63.623047 0)"/>
      </g>
     </g>
    </g>
    <g id="ytick_2">
     <g id="line2d_7">
      <path d="M 169.2 135.36 
C 169.2 132.050766 168.548153 128.773711 167.281764 125.716378 
C 166.015375 122.659044 164.159072 119.880891 161.819091 117.540909 
C 159.479109 115.200928 156.700956 113.344625 153.643622 112.078236 
C 150.586289 110.811847 147.309234 110.16 144 110.16 
C 140.690766 110.16 137.413711 110.811847 134.356378 112.078236 
C 131.299044 113.344625 128.520891 115.200928 126.180909 117.540909 
C 123.840928 119.880891 121.984625 122.659044 120.718236 125.716378 
C 119.451847 128.773711 118.8 132.050766 118.8 135.36 
C 118.8 138.669234 119.451847 141.946289 120.718236 145.003622 
C 121.984625 148.060956 123.840928 150.839109 126.180909 153.179091 
C 128.520891 155.519072 131.299044 157.375375 134.356378 158.641764 
C 137.413711 159.908153 140.690766 160.56 144 160.56 
C 147.309234 160.56 150.586289 159.908153 153.643622 158.641764 
C 156.700956 157.375375 159.479109 155.519072 161.819091 153.179091 
C 164.159072 150.839109 166.015375 148.060956 167.281764 145.003622 
C 168.548153 141.946289 169.2 138.669234 169.2 135.36 
" clip-path="url(#pfa11f0b1e4)" style="fill: none; stroke-dasharray: 0.8,1.32; stroke-dashoffset: 0; stroke: #888888; stroke-opacity: 0.55; stroke-width: 0.8"/>
     </g>
     <g id="text_2">
      <!-- 85 -->
      <g style="fill: #666666" transform="translate(144 108.49625) scale(0.08 -0.08)">
       <defs>
        <path id="DejaVuSans-35" d="M 691 4666 
L 3169 4666 
L 3169 4134 
L 1269 4134 
L 1269 2991 
Q 1406 3038 1543 3061 
Q 1681 3084 1819 3084 
Q 2600 3084 3056 2656 
Q 3513 2228 3513 1497 
Q 3513 744 3044 326 
Q 2575 -91 1722 -91 
Q 1428 -91 1123 -41 
Q 819 9 494 109 
L 494 744 
Q 775 591 1075 516 
Q 1375 441 1709 441 
Q 2250 441 2565 725 
Q 2881 1009 2881 1497 
Q 2881 1984 2565 2268 
Q 2250 2553 1709 2553 
Q 1456 2553 1204 2497 
Q 953 2441 691 2322 
L 691 4666 
z
" transform="scale(0.015625)"/>
       </defs>
       <use xlink:href="#DejaVuSans-38"/>
       <use xlink:href="#DejaVuSans-35" transform="translate(63.623047 0)"/>
      </g>
     </g>
    </g>
    <g id="ytick_3">
     <g id="line2d_8">
      <path d="M 194.4 135.36 
C 194.4 128.741533 193.096306 122.187422 190.563528 116.072755 
C 188.030751 109.958088 184.318145 104.401781 179.638182 99.721818 
C 174.958219 95.041855 169.401912 91.329249 163.287245 88.796472 
C 157.172578 86.263694 150.618467 84.96 144 84.96 
C 137.381533 84.96 130.827422 86.263694 124.712755 88.796472 
C 118.598088 91.329249 113.041781 95.041855 108.361818 99.721818 
C 103.681855 104.401781 99.969249 109.958088 97.436472 116.072755 
C 94.903694 122.187422 93.6 128.741533 93.6 135.36 
C 93.6 141.978467 94.903694 148.532578 97.436472 154.647245 
C 99.969249 160.761912 103.681855 166.318219 108.361818 170.998182 
C 113.041781 175.678145 118.598088 179.390751 124.712755 181.923528 
C 130.827422 184.456306 137.381533 185.76 144 185.76 
C 150.618467 185.76 157.172578 184.456306 163.287245 181.923528 
C 169.401912 179.390751 174.958219 175.678145 179.638182 170.998182 
C 184.318145 166.318219 188.030751 160.761912 190.563528 154.647245 
C 193.096306 148.532578 194.4 141.978467 194.4 135.36 
" clip-path="url(#pfa11f0b1e4)" style="fill: none; stroke-dasharray: 0.8,1.32; stroke-dashoffset: 0; stroke: #888888; stroke-opacity: 0.55; stroke-width: 0.8"/>
     </g>
     <g id="text_3">
      <!-- 90 -->
      <g style="fill: #666666" transform="translate(144 83.29625) scale(0.08 -0.08)">
       <defs>
        <path id="DejaVuSans-39" d="M 703 97 
L 703 672 
Q 941 559 1184 500 
Q 1428 441 1663 441 
Q 2288 441 2617 861 
Q 2947 1281 2994 2138 
Q 2813 1869 2534 1725 
Q 2256 1581 1919 1581 
Q 1219 1581 811 2004 
Q 403 2428 403 3163 
Q 403 3881 828 4315 
Q 1253 4750 1959 4750 
Q 2769 4750 3195 4129 
Q 3622 3509 3622 2328 
Q 3622 1225 3098 567 
Q 2575 -91 1691 -91 
Q 1453 -91 1209 -44 
Q 966 3 703 97 
z
M 1959 2075 
Q 2384 2075 2632 2365 
Q 2881 2656 2881 3163 
Q 2881 3666 2632 3958 
Q 2384 4250 1959 4250 
Q 1534 4250 1286 3958 
Q 1038 3666 1038 3163 
Q 1038 2656 1286 2365 
Q 1534 2075 1959 2075 
z
" transform="scale(0.015625)"/>
       </defs>
       <use xlink:href="#DejaVuSans-39"/>
       <use xlink:href="#DejaVuSans-30" transform="translate(63.623047 0)"/>
      </g>
     </g>
    </g>
    <g id="ytick_4">
     <g id="line2d_9">
      <path d="M 219.6 135.36 
C 219.6 125.432299 217.644459 115.601132 213.845293 106.429133 
C 210.046126 97.257133 204.477217 88.922672 197.457273 81.902727 
C 190.437328 74.882783 182.102867 69.313874 172.930867 65.514707 
C 163.758868 61.715541 153.927701 59.76 144 59.76 
C 134.072299 59.76 124.241132 61.715541 115.069133 65.514707 
C 105.897133 69.313874 97.562672 74.882783 90.542727 81.902727 
C 83.522783 88.922672 77.953874 97.257133 74.154707 106.429133 
C 70.355541 115.601132 68.4 125.432299 68.4 135.36 
C 68.4 145.287701 70.355541 155.118868 74.154707 164.290867 
C 77.953874 173.462867 83.522783 181.797328 90.542727 188.817273 
C 97.562672 195.837217 105.897133 201.406126 115.069133 205.205293 
C 124.241132 209.004459 134.072299 210.96 144 210.96 
C 153.927701 210.96 163.758868 209.004459 172.930867 205.205293 
C 182.102867 201.406126 190.437328 195.837217 197.457273 188.817273 
C 204.477217 181.797328 210.046126 173.462867 213.845293 164.290867 
C 217.644459 155.118868 219.6 145.287701 219.6 135.36 
" clip-path="url(#pfa11f0b1e4)" style="fill: none; stroke-dasharray: 0.8,1.32; stroke-dashoffset: 0; stroke: #888888; stroke-opacity: 0.55; stroke-width: 0.8"/>
     </g>
     <g id="text_4">
      <!-- 95 -->
      <g style="fill: #666666" transform="translate(144 58.09625) scale(0.08 -0.08)">
       <use xlink:href="#DejaVuSans-39"/>
       <use xlink:href="#DejaVuSans-35" transform="translate(63.623047 0)"/>
      </g>
     </g>
    </g>
    <g id="ytick_5">
     <g id="line2d_10">
      <path d="M 244.8 135.36 
C 244.8 122.123065 242.192612 109.014843 237.127057 96.78551 
C 232.061501 84.556177 224.63629 73.443563 215.276364 64.083636 
C 205.916437 54.72371 194.803823 47.298499 182.57449 42.232943 
C 170.345157 37.167388 157.236935 34.56 144 34.56 
C 130.763065 34.56 117.654843 37.167388 105.42551 42.232943 
C 93.196177 47.298499 82.083563 54.72371 72.723636 64.083636 
C 63.36371 73.443563 55.938499 84.556177 50.872943 96.78551 
C 45.807388 109.014843 43.2 122.123065 43.2 135.36 
C 43.2 148.596935 45.807388 161.705157 50.872943 173.93449 
C 55.938499 186.163823 63.36371 197.276437 72.723636 206.636364 
C 82.083563 215.99629 93.196177 223.421501 105.42551 228.487057 
C 117.654843 233.552612 130.763065 236.16 144 236.16 
C 157.236935 236.16 170.345157 233.552612 182.57449 228.487057 
C 194.803823 223.421501 205.916437 215.99629 215.276364 206.636364 
C 224.63629 197.276437 232.061501 186.163823 237.127057 173.93449 
C 242.192612 161.705157 244.8 148.596935 244.8 135.36 
" clip-path="url(#pfa11f0b1e4)" style="fill: none; stroke-dasharray: 0.8,1.32; stroke-dashoffset: 0; stroke: #888888; stroke-opacity: 0.55; stroke-width: 0.8"/>
     </g>
     <g id="text_5">
      <!-- 100 -->
      <g style="fill: #666666" transform="translate(144 32.89625) scale(0.08 -0.08)">
       <defs>
        <path id="DejaVuSans-31" d="M 794 531 
L 1825 531 
L 1825 4091 
L 703 3866 
L 703 4441 
L 1819 4666 
L 2450 4666 
L 2450 531 
L 3481 531 
L 3481 0 
L 794 0 
L 794 531 
z
" transform="scale(0.015625)"/>
       </defs>
       <use xlink:href="#DejaVuSans-31"/>
       <use xlink:href="#DejaVuSans-30" transform="translate(63.623047 0)"/>
       <use xlink:href="#DejaVuSans-30" transform="translate(127.246094 0)"/>
      </g>
     </g>
    </g>
   </g>
   <g id="patch_3">
    <path d="M 212.4 135.36 
L 170.699068 53.188717 
L 85.750776 93.039462 
L 65.363548 192.492727 
L 174.036452 227.802693 
z
" clip-path="url(#pfa11f0b1e4)" style="fill: #a04ebf; opacity: 0.12; stroke: #a04ebf; stroke-linejoin: miter"/>
   </g>
   <g id="patch_4">
    <path d="M 207.28 135.36 
L 167.361685 63.460127 
L 85.556612 92.898393 
L 66.981582 191.317156 
L 171.687923 220.574664 
z
" clip-path="url(#pfa11f0b1e4)" style="fill: #1f4fbf; opacity: 0.12; stroke: #1f4fbf; stroke-linejoin: miter"/>
   </g>
   <g id="patch_5">
    <path d="M 187.527273 135.36 
L 161.698246 80.8904 
L 79.131546 88.23031 
L 66.157856 191.915628 
L 170.193404 215.975009 
z
" clip-path="url(#pfa11f0b1e4)" style="fill: #4fb99f; opacity: 0.12; stroke: #4fb99f; stroke-linejoin: miter"/>
   </g>
   <g id="patch_6">
    <path d="M 214.2 135.36 
L 162.91184 77.155341 
L 104.681774 106.793637 
L 86.333269 177.257333 
L 167.361685 207.259873 
z
" clip-path="url(#pfa11f0b1e4)" style="fill: #e8894c; opacity: 0.12; stroke: #e8894c; stroke-linejoin: miter"/>
   </g>
   <g id="patch_7">
    <path d="M 244.8 135.36 
C 244.8 122.123065 242.192612 109.014843 237.127057 96.78551 
C 232.061501 84.556177 224.63629 73.443563 215.276364 64.083636 
C 205.916437 54.72371 194.803823 47.298499 182.57449 42.232943 
C 170.345157 37.167388 157.236935 34.56 144 34.56 
C 130.763065 34.56 117.654843 37.167388 105.42551 42.232943 
C 93.196177 47.298499 82.083563 54.72371 72.723636 64.083636 
C 63.36371 73.443563 55.938499 84.556177 50.872943 96.78551 
C 45.807388 109.014843 43.2 122.123065 43.2 135.36 
C 43.2 148.596935 45.807388 161.705157 50.872943 173.93449 
C 55.938499 186.163823 63.36371 197.276437 72.723636 206.636364 
C 82.083563 215.99629 93.196177 223.421501 105.42551 228.487057 
C 117.654843 233.552612 130.763065 236.16 144 236.16 
C 157.236935 236.16 170.345157 233.552612 182.57449 228.487057 
C 194.803823 223.421501 205.916437 215.99629 215.276364 206.636364 
C 224.63629 197.276437 232.061501 186.163823 237.127057 173.93449 
C 242.192612 161.705157 244.8 148.596935 244.8 135.36 
" style="fill: none; stroke: #cccccc; stroke-width: 0.8; stroke-linejoin: miter; stroke-linecap: square"/>
   </g>
   <g id="text_6">
    <!-- Data exploration -->
    <g style="fill: #222222" transform="translate(216.034922 138.257344) scale(0.105 -0.105)">
     <defs>
      <path id="DejaVuSans-44" d="M 1259 4147 
L 1259 519 
L 2022 519 
Q 2988 519 3436 956 
Q 3884 1394 3884 2338 
Q 3884 3275 3436 3711 
Q 2988 4147 2022 4147 
L 1259 4147 
z
M 628 4666 
L 1925 4666 
Q 3281 4666 3915 4102 
Q 4550 3538 4550 2338 
Q 4550 1131 3912 565 
Q 3275 0 1925 0 
L 628 0 
L 628 4666 
z
" transform="scale(0.015625)"/>
      <path id="DejaVuSans-61" d="M 2194 1759 
Q 1497 1759 1228 1600 
Q 959 1441 959 1056 
Q 959 750 1161 570 
Q 1363 391 1709 391 
Q 2188 391 2477 730 
Q 2766 1069 2766 1631 
L 2766 1759 
L 2194 1759 
z
M 3341 1997 
L 3341 0 
L 2766 0 
L 2766 531 
Q 2569 213 2275 61 
Q 1981 -91 1556 -91 
Q 1019 -91 701 211 
Q 384 513 384 1019 
Q 384 1609 779 1909 
Q 1175 2209 1959 2209 
L 2766 2209 
L 2766 2266 
Q 2766 2663 2505 2880 
Q 2244 3097 1772 3097 
Q 1472 3097 1187 3025 
Q 903 2953 641 2809 
L 641 3341 
Q 956 3463 1253 3523 
Q 1550 3584 1831 3584 
Q 2591 3584 2966 3190 
Q 3341 2797 3341 1997 
z
" transform="scale(0.015625)"/>
      <path id="DejaVuSans-74" d="M 1172 4494 
L 1172 3500 
L 2356 3500 
L 2356 3053 
L 1172 3053 
L 1172 1153 
Q 1172 725 1289 603 
Q 1406 481 1766 481 
L 2356 481 
L 2356 0 
L 1766 0 
Q 1100 0 847 248 
Q 594 497 594 1153 
L 594 3053 
L 172 3053 
L 172 3500 
L 594 3500 
L 594 4494 
L 1172 4494 
z
" transform="scale(0.015625)"/>
      <path id="DejaVuSans-20" transform="scale(0.015625)"/>
      <path id="DejaVuSans-65" d="M 3597 1894 
L 3597 1613 
L 953 1613 
Q 991 1019 1311 708 
Q 1631 397 2203 397 
Q 2534 397 2845 478 
Q 3156 559 3463 722 
L 3463 178 
Q 3153 47 2828 -22 
Q 2503 -91 2169 -91 
Q 1331 -91 842 396 
Q 353 884 353 1716 
Q 353 2575 817 3079 
Q 1281 3584 2069 3584 
Q 2775 3584 3186 3129 
Q 3597 2675 3597 1894 
z
M 3022 2063 
Q 3016 2534 2758 2815 
Q 2500 3097 2075 3097 
Q 1594 3097 1305 2825 
Q 1016 2553 972 2059 
L 3022 2063 
z
" transform="scale(0.015625)"/>
      <path id="DejaVuSans-78" d="M 3513 3500 
L 2247 1797 
L 3578 0 
L 2900 0 
L 1881 1375 
L 863 0 
L 184 0 
L 1544 1831 
L 300 3500 
L 978 3500 
L 1906 2253 
L 2834 3500 
L 3513 3500 
z
" transform="scale(0.015625)"/>
      <path id="DejaVuSans-70" d="M 1159 525 
L 1159 -1331 
L 581 -1331 
L 581 3500 
L 1159 3500 
L 1159 2969 
Q 1341 3281 1617 3432 
Q 1894 3584 2278 3584 
Q 2916 3584 3314 3078 
Q 3713 2572 3713 1747 
Q 3713 922 3314 415 
Q 2916 -91 2278 -91 
Q 1894 -91 1617 61 
Q 1341 213 1159 525 
z
M 3116 1747 
Q 3116 2381 2855 2742 
Q 2594 3103 2138 3103 
Q 1681 3103 1420 2742 
Q 1159 2381 1159 1747 
Q 1159 1113 1420 752 
Q 1681 391 2138 391 
Q 2594 391 2855 752 
Q 3116 1113 3116 1747 
z
" transform="scale(0.015625)"/>
      <path id="DejaVuSans-6c" d="M 603 4863 
L 1178 4863 
L 1178 0 
L 603 0 
L 603 4863 
z
" transform="scale(0.015625)"/>
      <path id="DejaVuSans-6f" d="M 1959 3097 
Q 1497 3097 1228 2736 
Q 959 2375 959 1747 
Q 959 1119 1226 758 
Q 1494 397 1959 397 
Q 2419 397 2687 759 
Q 2956 1122 2956 1747 
Q 2956 2369 2687 2733 
Q 2419 3097 1959 3097 
z
M 1959 3584 
Q 2709 3584 3137 3096 
Q 3566 2609 3566 1747 
Q 3566 888 3137 398 
Q 2709 -91 1959 -91 
Q 1206 -91 779 398 
Q 353 888 353 1747 
Q 353 2609 779 3096 
Q 1206 3584 1959 3584 
z
" transform="scale(0.015625)"/>
      <path id="DejaVuSans-72" d="M 2631 2963 
Q 2534 3019 2420 3045 
Q 2306 3072 2169 3072 
Q 1681 3072 1420 2755 
Q 1159 2438 1159 1844 
L 1159 0 
L 581 0 
L 581 3500 
L 1159 3500 
L 1159 2956 
Q 1341 3275 1631 3429 
Q 1922 3584 2338 3584 
Q 2397 3584 2469 3576 
Q 2541 3569 2628 3553 
L 2631 2963 
z
" transform="scale(0.015625)"/>
      <path id="DejaVuSans-69" d="M 603 3500 
L 1178 3500 
L 1178 0 
L 603 0 
L 603 3500 
z
M 603 4863 
L 1178 4863 
L 1178 4134 
L 603 4134 
L 603 4863 
z
" transform="scale(0.015625)"/>
      <path id="DejaVuSans-6e" d="M 3513 2113 
L 3513 0 
L 2938 0 
L 2938 2094 
Q 2938 2591 2744 2837 
Q 2550 3084 2163 3084 
Q 1697 3084 1428 2787 
Q 1159 2491 1159 1978 
L 1159 0 
L 581 0 
L 581 3500 
L 1159 3500 
L 1159 2956 
Q 1366 3272 1645 3428 
Q 1925 3584 2291 3584 
Q 2894 3584 3203 3211 
Q 3513 2838 3513 2113 
z
" transform="scale(0.015625)"/>
     </defs>
     <use xlink:href="#DejaVuSans-44"/>
     <use xlink:href="#DejaVuSans-61" transform="translate(77.001953 0)"/>
     <use xlink:href="#DejaVuSans-74" transform="translate(138.28125 0)"/>
     <use xlink:href="#DejaVuSans-61" transform="translate(177.490234 0)"/>
     <use xlink:href="#DejaVuSans-20" transform="translate(238.769531 0)"/>
     <use xlink:href="#DejaVuSans-65" transform="translate(270.556641 0)"/>
     <use xlink:href="#DejaVuSans-78" transform="translate(330.330078 0)"/>
     <use xlink:href="#DejaVuSans-70" transform="translate(389.509766 0)"/>
     <use xlink:href="#DejaVuSans-6c" transform="translate(452.986328 0)"/>
     <use xlink:href="#DejaVuSans-6f" transform="translate(480.769531 0)"/>
     <use xlink:href="#DejaVuSans-72" transform="translate(541.951172 0)"/>
     <use xlink:href="#DejaVuSans-61" transform="translate(583.064453 0)"/>
     <use xlink:href="#DejaVuSans-74" transform="translate(644.34375 0)"/>
     <use xlink:href="#DejaVuSans-69" transform="translate(683.552734 0)"/>
     <use xlink:href="#DejaVuSans-6f" transform="translate(711.335938 0)"/>
     <use xlink:href="#DejaVuSans-6e" transform="translate(772.517578 0)"/>
    </g>
   </g>
   <g id="text_7">
    <!-- Method selection -->
    <g style="fill: #222222" transform="translate(134.864844 28.010872) scale(0.105 -0.105)">
     <defs>
      <path id="DejaVuSans-4d" d="M 628 4666 
L 1569 4666 
L 2759 1491 
L 3956 4666 
L 4897 4666 
L 4897 0 
L 4281 0 
L 4281 4097 
L 3078 897 
L 2444 897 
L 1241 4097 
L 1241 0 
L 628 0 
L 628 4666 
z
" transform="scale(0.015625)"/>
      <path id="DejaVuSans-68" d="M 3513 2113 
L 3513 0 
L 2938 0 
L 2938 2094 
Q 2938 2591 2744 2837 
Q 2550 3084 2163 3084 
Q 1697 3084 1428 2787 
Q 1159 2491 1159 1978 
L 1159 0 
L 581 0 
L 581 4863 
L 1159 4863 
L 1159 2956 
Q 1366 3272 1645 3428 
Q 1925 3584 2291 3584 
Q 2894 3584 3203 3211 
Q 3513 2838 3513 2113 
z
" transform="scale(0.015625)"/>
      <path id="DejaVuSans-64" d="M 2906 2969 
L 2906 4863 
L 3481 4863 
L 3481 0 
L 2906 0 
L 2906 525 
Q 2725 213 2448 61 
Q 2172 -91 1784 -91 
Q 1150 -91 751 415 
Q 353 922 353 1747 
Q 353 2572 751 3078 
Q 1150 3584 1784 3584 
Q 2172 3584 2448 3432 
Q 2725 3281 2906 2969 
z
M 947 1747 
Q 947 1113 1208 752 
Q 1469 391 1925 391 
Q 2381 391 2643 752 
Q 2906 1113 2906 1747 
Q 2906 2381 2643 2742 
Q 2381 3103 1925 3103 
Q 1469 3103 1208 2742 
Q 947 2381 947 1747 
z
" transform="scale(0.015625)"/>
      <path id="DejaVuSans-73" d="M 2834 3397 
L 2834 2853 
Q 2591 2978 2328 3040 
Q 2066 3103 1784 3103 
Q 1356 3103 1142 2972 
Q 928 2841 928 2578 
Q 928 2378 1081 2264 
Q 1234 2150 1697 2047 
L 1894 2003 
Q 2506 1872 2764 1633 
Q 3022 1394 3022 966 
Q 3022 478 2636 193 
Q 2250 -91 1575 -91 
Q 1294 -91 989 -36 
Q 684 19 347 128 
L 347 722 
Q 666 556 975 473 
Q 1284 391 1588 391 
Q 1994 391 2212 530 
Q 2431 669 2431 922 
Q 2431 1156 2273 1281 
Q 2116 1406 1581 1522 
L 1381 1569 
Q 847 1681 609 1914 
Q 372 2147 372 2553 
Q 372 3047 722 3315 
Q 1072 3584 1716 3584 
Q 2034 3584 2315 3537 
Q 2597 3491 2834 3397 
z
" transform="scale(0.015625)"/>
      <path id="DejaVuSans-63" d="M 3122 3366 
L 3122 2828 
Q 2878 2963 2633 3030 
Q 2388 3097 2138 3097 
Q 1578 3097 1268 2742 
Q 959 2388 959 1747 
Q 959 1106 1268 751 
Q 1578 397 2138 397 
Q 2388 397 2633 464 
Q 2878 531 3122 666 
L 3122 134 
Q 2881 22 2623 -34 
Q 2366 -91 2075 -91 
Q 1284 -91 818 406 
Q 353 903 353 1747 
Q 353 2603 823 3093 
Q 1294 3584 2113 3584 
Q 2378 3584 2631 3529 
Q 2884 3475 3122 3366 
z
" transform="scale(0.015625)"/>
     </defs>
     <use xlink:href="#DejaVuSans-4d"/>
     <use xlink:href="#DejaVuSans-65" transform="translate(86.279297 0)"/>
     <use xlink:href="#DejaVuSans-74" transform="translate(147.802734 0)"/>
     <use xlink:href="#DejaVuSans-68" transform="translate(187.011719 0)"/>
     <use xlink:href="#DejaVuSans-6f" transform="translate(250.390625 0)"/>
     <use xlink:href="#DejaVuSans-64" transform="translate(311.572266 0)"/>
     <use xlink:href="#DejaVuSans-20" transform="translate(375.048828 0)"/>
     <use xlink:href="#DejaVuSans-73" transform="translate(406.835938 0)"/>
     <use xlink:href="#DejaVuSans-65" transform="translate(458.935547 0)"/>
     <use xlink:href="#DejaVuSans-6c" transform="translate(520.458984 0)"/>
     <use xlink:href="#DejaVuSans-65" transform="translate(548.242188 0)"/>
     <use xlink:href="#DejaVuSans-63" transform="translate(609.765625 0)"/>
     <use xlink:href="#DejaVuSans-74" transform="translate(664.746094 0)"/>
     <use xlink:href="#DejaVuSans-69" transform="translate(703.955078 0)"/>
     <use xlink:href="#DejaVuSans-6f" transform="translate(731.738281 0)"/>
     <use xlink:href="#DejaVuSans-6e" transform="translate(792.919922 0)"/>
    </g>
   </g>
   <g id="text_8">
    <!-- Execution -->
    <g style="fill: #222222" transform="translate(24.457656 64.242426) scale(0.105 -0.105)">
     <defs>
      <path id="DejaVuSans-45" d="M 628 4666 
L 3578 4666 
L 3578 4134 
L 1259 4134 
L 1259 2753 
L 3481 2753 
L 3481 2222 
L 1259 2222 
L 1259 531 
L 3634 531 
L 3634 0 
L 628 0 
L 628 4666 
z
" transform="scale(0.015625)"/>
      <path id="DejaVuSans-75" d="M 544 1381 
L 544 3500 
L 1119 3500 
L 1119 1403 
Q 1119 906 1312 657 
Q 1506 409 1894 409 
Q 2359 409 2629 706 
Q 2900 1003 2900 1516 
L 2900 3500 
L 3475 3500 
L 3475 0 
L 2900 0 
L 2900 538 
Q 2691 219 2414 64 
Q 2138 -91 1772 -91 
Q 1169 -91 856 284 
Q 544 659 544 1381 
z
M 1991 3584 
L 1991 3584 
z
" transform="scale(0.015625)"/>
     </defs>
     <use xlink:href="#DejaVuSans-45"/>
     <use xlink:href="#DejaVuSans-78" transform="translate(63.183594 0)"/>
     <use xlink:href="#DejaVuSans-65" transform="translate(119.238281 0)"/>
     <use xlink:href="#DejaVuSans-63" transform="translate(180.761719 0)"/>
     <use xlink:href="#DejaVuSans-75" transform="translate(235.742188 0)"/>
     <use xlink:href="#DejaVuSans-74" transform="translate(299.121094 0)"/>
     <use xlink:href="#DejaVuSans-69" transform="translate(338.330078 0)"/>
     <use xlink:href="#DejaVuSans-6f" transform="translate(366.113281 0)"/>
     <use xlink:href="#DejaVuSans-6e" transform="translate(427.294922 0)"/>
    </g>
    <!-- correctness -->
    <g style="fill: #222222" transform="translate(19.810586 76.000129) scale(0.105 -0.105)">
     <use xlink:href="#DejaVuSans-63"/>
     <use xlink:href="#DejaVuSans-6f" transform="translate(54.980469 0)"/>
     <use xlink:href="#DejaVuSans-72" transform="translate(116.162109 0)"/>
     <use xlink:href="#DejaVuSans-72" transform="translate(155.525391 0)"/>
     <use xlink:href="#DejaVuSans-65" transform="translate(194.388672 0)"/>
     <use xlink:href="#DejaVuSans-63" transform="translate(255.912109 0)"/>
     <use xlink:href="#DejaVuSans-74" transform="translate(310.892578 0)"/>
     <use xlink:href="#DejaVuSans-6e" transform="translate(350.101562 0)"/>
     <use xlink:href="#DejaVuSans-65" transform="translate(413.480469 0)"/>
     <use xlink:href="#DejaVuSans-73" transform="translate(475.003906 0)"/>
     <use xlink:href="#DejaVuSans-73" transform="translate(527.103516 0)"/>
    </g>
   </g>
   <g id="text_9">
    <!-- Answer fidelity -->
    <g style="fill: #222222" transform="translate(11.262109 206.39341) scale(0.105 -0.105)">
     <defs>
      <path id="DejaVuSans-41" d="M 2188 4044 
L 1331 1722 
L 3047 1722 
L 2188 4044 
z
M 1831 4666 
L 2547 4666 
L 4325 0 
L 3669 0 
L 3244 1197 
L 1141 1197 
L 716 0 
L 50 0 
L 1831 4666 
z
" transform="scale(0.015625)"/>
      <path id="DejaVuSans-77" d="M 269 3500 
L 844 3500 
L 1563 769 
L 2278 3500 
L 2956 3500 
L 3675 769 
L 4391 3500 
L 4966 3500 
L 4050 0 
L 3372 0 
L 2619 2869 
L 1863 0 
L 1184 0 
L 269 3500 
z
" transform="scale(0.015625)"/>
      <path id="DejaVuSans-66" d="M 2375 4863 
L 2375 4384 
L 1825 4384 
Q 1516 4384 1395 4259 
Q 1275 4134 1275 3809 
L 1275 3500 
L 2222 3500 
L 2222 3053 
L 1275 3053 
L 1275 0 
L 697 0 
L 697 3053 
L 147 3053 
L 147 3500 
L 697 3500 
L 697 3744 
Q 697 4328 969 4595 
Q 1241 4863 1831 4863 
L 2375 4863 
z
" transform="scale(0.015625)"/>
      <path id="DejaVuSans-79" d="M 2059 -325 
Q 1816 -950 1584 -1140 
Q 1353 -1331 966 -1331 
L 506 -1331 
L 506 -850 
L 844 -850 
Q 1081 -850 1212 -737 
Q 1344 -625 1503 -206 
L 1606 56 
L 191 3500 
L 800 3500 
L 1894 763 
L 2988 3500 
L 3597 3500 
L 2059 -325 
z
" transform="scale(0.015625)"/>
     </defs>
     <use xlink:href="#DejaVuSans-41"/>
     <use xlink:href="#DejaVuSans-6e" transform="translate(68.408203 0)"/>
     <use xlink:href="#DejaVuSans-73" transform="translate(131.787109 0)"/>
     <use xlink:href="#DejaVuSans-77" transform="translate(183.886719 0)"/>
     <use xlink:href="#DejaVuSans-65" transform="translate(265.673828 0)"/>
     <use xlink:href="#DejaVuSans-72" transform="translate(327.197266 0)"/>
     <use xlink:href="#DejaVuSans-20" transform="translate(368.310547 0)"/>
     <use xlink:href="#DejaVuSans-66" transform="translate(400.097656 0)"/>
     <use xlink:href="#DejaVuSans-69" transform="translate(435.302734 0)"/>
     <use xlink:href="#DejaVuSans-64" transform="translate(463.085938 0)"/>
     <use xlink:href="#DejaVuSans-65" transform="translate(526.5625 0)"/>
     <use xlink:href="#DejaVuSans-6c" transform="translate(588.085938 0)"/>
     <use xlink:href="#DejaVuSans-69" transform="translate(615.869141 0)"/>
     <use xlink:href="#DejaVuSans-74" transform="translate(643.652344 0)"/>
     <use xlink:href="#DejaVuSans-79" transform="translate(682.861328 0)"/>
    </g>
   </g>
   <g id="text_10">
    <!-- Iteration pattern -->
    <g style="fill: #222222" transform="translate(136.593242 248.503815) scale(0.105 -0.105)">
     <defs>
      <path id="DejaVuSans-49" d="M 628 4666 
L 1259 4666 
L 1259 0 
L 628 0 
L 628 4666 
z
" transform="scale(0.015625)"/>
     </defs>
     <use xlink:href="#DejaVuSans-49"/>
     <use xlink:href="#DejaVuSans-74" transform="translate(29.492188 0)"/>
     <use xlink:href="#DejaVuSans-65" transform="translate(68.701172 0)"/>
     <use xlink:href="#DejaVuSans-72" transform="translate(130.224609 0)"/>
     <use xlink:href="#DejaVuSans-61" transform="translate(171.337891 0)"/>
     <use xlink:href="#DejaVuSans-74" transform="translate(232.617188 0)"/>
     <use xlink:href="#DejaVuSans-69" transform="translate(271.826172 0)"/>
     <use xlink:href="#DejaVuSans-6f" transform="translate(299.609375 0)"/>
     <use xlink:href="#DejaVuSans-6e" transform="translate(360.791016 0)"/>
     <use xlink:href="#DejaVuSans-20" transform="translate(424.169922 0)"/>
     <use xlink:href="#DejaVuSans-70" transform="translate(455.957031 0)"/>
     <use xlink:href="#DejaVuSans-61" transform="translate(519.433594 0)"/>
     <use xlink:href="#DejaVuSans-74" transform="translate(580.712891 0)"/>
     <use xlink:href="#DejaVuSans-74" transform="translate(619.921875 0)"/>
     <use xlink:href="#DejaVuSans-65" transform="translate(659.130859 0)"/>
     <use xlink:href="#DejaVuSans-72" transform="translate(720.654297 0)"/>
     <use xlink:href="#DejaVuSans-6e" transform="translate(760.017578 0)"/>
    </g>
   </g>
   <g id="text_11">
    <!-- BixBench-Verified-50 -->
    <g transform="translate(76.395938 -3.997156) scale(0.13 -0.13)">
     <defs>
      <path id="DejaVuSans-42" d="M 1259 2228 
L 1259 519 
L 2272 519 
Q 2781 519 3026 730 
Q 3272 941 3272 1375 
Q 3272 1813 3026 2020 
Q 2781 2228 2272 2228 
L 1259 2228 
z
M 1259 4147 
L 1259 2741 
L 2194 2741 
Q 2656 2741 2882 2914 
Q 3109 3088 3109 3444 
Q 3109 3797 2882 3972 
Q 2656 4147 2194 4147 
L 1259 4147 
z
M 628 4666 
L 2241 4666 
Q 2963 4666 3353 4366 
Q 3744 4066 3744 3513 
Q 3744 3084 3544 2831 
Q 3344 2578 2956 2516 
Q 3422 2416 3680 2098 
Q 3938 1781 3938 1306 
Q 3938 681 3513 340 
Q 3088 0 2303 0 
L 628 0 
L 628 4666 
z
" transform="scale(0.015625)"/>
      <path id="DejaVuSans-2d" d="M 313 2009 
L 1997 2009 
L 1997 1497 
L 313 1497 
L 313 2009 
z
" transform="scale(0.015625)"/>
      <path id="DejaVuSans-56" d="M 1831 0 
L 50 4666 
L 709 4666 
L 2188 738 
L 3669 4666 
L 4325 4666 
L 2547 0 
L 1831 0 
z
" transform="scale(0.015625)"/>
     </defs>
     <use xlink:href="#DejaVuSans-42"/>
     <use xlink:href="#DejaVuSans-69" transform="translate(68.603516 0)"/>
     <use xlink:href="#DejaVuSans-78" transform="translate(96.386719 0)"/>
     <use xlink:href="#DejaVuSans-42" transform="translate(155.566406 0)"/>
     <use xlink:href="#DejaVuSans-65" transform="translate(224.169922 0)"/>
     <use xlink:href="#DejaVuSans-6e" transform="translate(285.693359 0)"/>
     <use xlink:href="#DejaVuSans-63" transform="translate(349.072266 0)"/>
     <use xlink:href="#DejaVuSans-68" transform="translate(404.052734 0)"/>
     <use xlink:href="#DejaVuSans-2d" transform="translate(467.431641 0)"/>
     <use xlink:href="#DejaVuSans-56" transform="translate(497.640625 0)"/>
     <use xlink:href="#DejaVuSans-65" transform="translate(558.298828 0)"/>
     <use xlink:href="#DejaVuSans-72" transform="translate(619.822266 0)"/>
     <use xlink:href="#DejaVuSans-69" transform="translate(660.935547 0)"/>
     <use xlink:href="#DejaVuSans-66" transform="translate(688.71875 0)"/>
     <use xlink:href="#DejaVuSans-69" transform="translate(723.923828 0)"/>
     <use xlink:href="#DejaVuSans-65" transform="translate(751.707031 0)"/>
     <use xlink:href="#DejaVuSans-64" transform="translate(813.230469 0)"/>
     <use xlink:href="#DejaVuSans-2d" transform="translate(876.707031 0)"/>
     <use xlink:href="#DejaVuSans-35" transform="translate(912.791016 0)"/>
     <use xlink:href="#DejaVuSans-30" transform="translate(976.414062 0)"/>
    </g>
    <!-- process quality by task category -->
    <g transform="translate(38.142422 10.56) scale(0.13 -0.13)">
     <defs>
      <path id="DejaVuSans-71" d="M 947 1747 
Q 947 1113 1208 752 
Q 1469 391 1925 391 
Q 2381 391 2643 752 
Q 2906 1113 2906 1747 
Q 2906 2381 2643 2742 
Q 2381 3103 1925 3103 
Q 1469 3103 1208 2742 
Q 947 2381 947 1747 
z
M 2906 525 
Q 2725 213 2448 61 
Q 2172 -91 1784 -91 
Q 1150 -91 751 415 
Q 353 922 353 1747 
Q 353 2572 751 3078 
Q 1150 3584 1784 3584 
Q 2172 3584 2448 3432 
Q 2725 3281 2906 2969 
L 2906 3500 
L 3481 3500 
L 3481 -1331 
L 2906 -1331 
L 2906 525 
z
" transform="scale(0.015625)"/>
      <path id="DejaVuSans-62" d="M 3116 1747 
Q 3116 2381 2855 2742 
Q 2594 3103 2138 3103 
Q 1681 3103 1420 2742 
Q 1159 2381 1159 1747 
Q 1159 1113 1420 752 
Q 1681 391 2138 391 
Q 2594 391 2855 752 
Q 3116 1113 3116 1747 
z
M 1159 2969 
Q 1341 3281 1617 3432 
Q 1894 3584 2278 3584 
Q 2916 3584 3314 3078 
Q 3713 2572 3713 1747 
Q 3713 922 3314 415 
Q 2916 -91 2278 -91 
Q 1894 -91 1617 61 
Q 1341 213 1159 525 
L 1159 0 
L 581 0 
L 581 4863 
L 1159 4863 
L 1159 2969 
z
" transform="scale(0.015625)"/>
      <path id="DejaVuSans-6b" d="M 581 4863 
L 1159 4863 
L 1159 1991 
L 2875 3500 
L 3609 3500 
L 1753 1863 
L 3688 0 
L 2938 0 
L 1159 1709 
L 1159 0 
L 581 0 
L 581 4863 
z
" transform="scale(0.015625)"/>
      <path id="DejaVuSans-67" d="M 2906 1791 
Q 2906 2416 2648 2759 
Q 2391 3103 1925 3103 
Q 1463 3103 1205 2759 
Q 947 2416 947 1791 
Q 947 1169 1205 825 
Q 1463 481 1925 481 
Q 2391 481 2648 825 
Q 2906 1169 2906 1791 
z
M 3481 434 
Q 3481 -459 3084 -895 
Q 2688 -1331 1869 -1331 
Q 1566 -1331 1297 -1286 
Q 1028 -1241 775 -1147 
L 775 -588 
Q 1028 -725 1275 -790 
Q 1522 -856 1778 -856 
Q 2344 -856 2625 -561 
Q 2906 -266 2906 331 
L 2906 616 
Q 2728 306 2450 153 
Q 2172 0 1784 0 
Q 1141 0 747 490 
Q 353 981 353 1791 
Q 353 2603 747 3093 
Q 1141 3584 1784 3584 
Q 2172 3584 2450 3431 
Q 2728 3278 2906 2969 
L 2906 3500 
L 3481 3500 
L 3481 434 
z
" transform="scale(0.015625)"/>
     </defs>
     <use xlink:href="#DejaVuSans-70"/>
     <use xlink:href="#DejaVuSans-72" transform="translate(63.476562 0)"/>
     <use xlink:href="#DejaVuSans-6f" transform="translate(102.339844 0)"/>
     <use xlink:href="#DejaVuSans-63" transform="translate(163.521484 0)"/>
     <use xlink:href="#DejaVuSans-65" transform="translate(218.501953 0)"/>
     <use xlink:href="#DejaVuSans-73" transform="translate(280.025391 0)"/>
     <use xlink:href="#DejaVuSans-73" transform="translate(332.125 0)"/>
     <use xlink:href="#DejaVuSans-20" transform="translate(384.224609 0)"/>
     <use xlink:href="#DejaVuSans-71" transform="translate(416.011719 0)"/>
     <use xlink:href="#DejaVuSans-75" transform="translate(479.488281 0)"/>
     <use xlink:href="#DejaVuSans-61" transform="translate(542.867188 0)"/>
     <use xlink:href="#DejaVuSans-6c" transform="translate(604.146484 0)"/>
     <use xlink:href="#DejaVuSans-69" transform="translate(631.929688 0)"/>
     <use xlink:href="#DejaVuSans-74" transform="translate(659.712891 0)"/>
     <use xlink:href="#DejaVuSans-79" transform="translate(698.921875 0)"/>
     <use xlink:href="#DejaVuSans-20" transform="translate(758.101562 0)"/>
     <use xlink:href="#DejaVuSans-62" transform="translate(789.888672 0)"/>
     <use xlink:href="#DejaVuSans-79" transform="translate(853.365234 0)"/>
     <use xlink:href="#DejaVuSans-20" transform="translate(912.544922 0)"/>
     <use xlink:href="#DejaVuSans-74" transform="translate(944.332031 0)"/>
     <use xlink:href="#DejaVuSans-61" transform="translate(983.541016 0)"/>
     <use xlink:href="#DejaVuSans-73" transform="translate(1044.820312 0)"/>
     <use xlink:href="#DejaVuSans-6b" transform="translate(1096.919922 0)"/>
     <use xlink:href="#DejaVuSans-20" transform="translate(1154.830078 0)"/>
     <use xlink:href="#DejaVuSans-63" transform="translate(1186.617188 0)"/>
     <use xlink:href="#DejaVuSans-61" transform="translate(1241.597656 0)"/>
     <use xlink:href="#DejaVuSans-74" transform="translate(1302.876953 0)"/>
     <use xlink:href="#DejaVuSans-65" transform="translate(1342.085938 0)"/>
     <use xlink:href="#DejaVuSans-67" transform="translate(1403.609375 0)"/>
     <use xlink:href="#DejaVuSans-6f" transform="translate(1467.085938 0)"/>
     <use xlink:href="#DejaVuSans-72" transform="translate(1528.267578 0)"/>
     <use xlink:href="#DejaVuSans-79" transform="translate(1569.380859 0)"/>
    </g>
   </g>
   <g id="line2d_11">
    <path d="M 212.4 135.36 
L 170.699068 53.188717 
L 85.750776 93.039462 
L 65.363548 192.492727 
L 174.036452 227.802693 
L 212.4 135.36 
" clip-path="url(#pfa11f0b1e4)" style="fill: none; stroke: #a04ebf; stroke-width: 2; stroke-linecap: square"/>
    <defs>
     <path id="m706d66d8be" d="M 0 2.5 
C 0.663008 2.5 1.29895 2.236584 1.767767 1.767767 
C 2.236584 1.29895 2.5 0.663008 2.5 0 
C 2.5 -0.663008 2.236584 -1.29895 1.767767 -1.767767 
C 1.29895 -2.236584 0.663008 -2.5 0 -2.5 
C -0.663008 -2.5 -1.29895 -2.236584 -1.767767 -1.767767 
C -2.236584 -1.29895 -2.5 -0.663008 -2.5 0 
C -2.5 0.663008 -2.236584 1.29895 -1.767767 1.767767 
C -1.29895 2.236584 -0.663008 2.5 0 2.5 
z
" style="stroke: #a04ebf"/>
    </defs>
    <g clip-path="url(#pfa11f0b1e4)">
     <use xlink:href="#m706d66d8be" x="212.4" y="135.36" style="fill: #a04ebf; stroke: #a04ebf"/>
     <use xlink:href="#m706d66d8be" x="170.699068" y="53.188717" style="fill: #a04ebf; stroke: #a04ebf"/>
     <use xlink:href="#m706d66d8be" x="85.750776" y="93.039462" style="fill: #a04ebf; stroke: #a04ebf"/>
     <use xlink:href="#m706d66d8be" x="65.363548" y="192.492727" style="fill: #a04ebf; stroke: #a04ebf"/>
     <use xlink:href="#m706d66d8be" x="174.036452" y="227.802693" style="fill: #a04ebf; stroke: #a04ebf"/>
     <use xlink:href="#m706d66d8be" x="212.4" y="135.36" style="fill: #a04ebf; stroke: #a04ebf"/>
    </g>
   </g>
   <g id="line2d_12">
    <path d="M 207.28 135.36 
L 167.361685 63.460127 
L 85.556612 92.898393 
L 66.981582 191.317156 
L 171.687923 220.574664 
L 207.28 135.36 
" clip-path="url(#pfa11f0b1e4)" style="fill: none; stroke: #1f4fbf; stroke-width: 2; stroke-linecap: square"/>
    <defs>
     <path id="mcaf48ae85f" d="M 0 2.5 
C 0.663008 2.5 1.29895 2.236584 1.767767 1.767767 
C 2.236584 1.29895 2.5 0.663008 2.5 0 
C 2.5 -0.663008 2.236584 -1.29895 1.767767 -1.767767 
C 1.29895 -2.236584 0.663008 -2.5 0 -2.5 
C -0.663008 -2.5 -1.29895 -2.236584 -1.767767 -1.767767 
C -2.236584 -1.29895 -2.5 -0.663008 -2.5 0 
C -2.5 0.663008 -2.236584 1.29895 -1.767767 1.767767 
C -1.29895 2.236584 -0.663008 2.5 0 2.5 
z
" style="stroke: #1f4fbf"/>
    </defs>
    <g clip-path="url(#pfa11f0b1e4)">
     <use xlink:href="#mcaf48ae85f" x="207.28" y="135.36" style="fill: #1f4fbf; stroke: #1f4fbf"/>
     <use xlink:href="#mcaf48ae85f" x="167.361685" y="63.460127" style="fill: #1f4fbf; stroke: #1f4fbf"/>
     <use xlink:href="#mcaf48ae85f" x="85.556612" y="92.898393" style="fill: #1f4fbf; stroke: #1f4fbf"/>
     <use xlink:href="#mcaf48ae85f" x="66.981582" y="191.317156" style="fill: #1f4fbf; stroke: #1f4fbf"/>
     <use xlink:href="#mcaf48ae85f" x="171.687923" y="220.574664" style="fill: #1f4fbf; stroke: #1f4fbf"/>
     <use xlink:href="#mcaf48ae85f" x="207.28" y="135.36" style="fill: #1f4fbf; stroke: #1f4fbf"/>
    </g>
   </g>
   <g id="line2d_13">
    <path d="M 187.527273 135.36 
L 161.698246 80.8904 
L 79.131546 88.23031 
L 66.157856 191.915628 
L 170.193404 215.975009 
L 187.527273 135.36 
" clip-path="url(#pfa11f0b1e4)" style="fill: none; stroke: #4fb99f; stroke-width: 2; stroke-linecap: square"/>
    <defs>
     <path id="m8a553d3fd2" d="M 0 2.5 
C 0.663008 2.5 1.29895 2.236584 1.767767 1.767767 
C 2.236584 1.29895 2.5 0.663008 2.5 0 
C 2.5 -0.663008 2.236584 -1.29895 1.767767 -1.767767 
C 1.29895 -2.236584 0.663008 -2.5 0 -2.5 
C -0.663008 -2.5 -1.29895 -2.236584 -1.767767 -1.767767 
C -2.236584 -1.29895 -2.5 -0.663008 -2.5 0 
C -2.5 0.663008 -2.236584 1.29895 -1.767767 1.767767 
C -1.29895 2.236584 -0.663008 2.5 0 2.5 
z
" style="stroke: #4fb99f"/>
    </defs>
    <g clip-path="url(#pfa11f0b1e4)">
     <use xlink:href="#m8a553d3fd2" x="187.527273" y="135.36" style="fill: #4fb99f; stroke: #4fb99f"/>
     <use xlink:href="#m8a553d3fd2" x="161.698246" y="80.8904" style="fill: #4fb99f; stroke: #4fb99f"/>
     <use xlink:href="#m8a553d3fd2" x="79.131546" y="88.23031" style="fill: #4fb99f; stroke: #4fb99f"/>
     <use xlink:href="#m8a553d3fd2" x="66.157856" y="191.915628" style="fill: #4fb99f; stroke: #4fb99f"/>
     <use xlink:href="#m8a553d3fd2" x="170.193404" y="215.975009" style="fill: #4fb99f; stroke: #4fb99f"/>
     <use xlink:href="#m8a553d3fd2" x="187.527273" y="135.36" style="fill: #4fb99f; stroke: #4fb99f"/>
    </g>
   </g>
   <g id="line2d_14">
    <path d="M 214.2 135.36 
L 162.91184 77.155341 
L 104.681774 106.793637 
L 86.333269 177.257333 
L 167.361685 207.259873 
L 214.2 135.36 
" clip-path="url(#pfa11f0b1e4)" style="fill: none; stroke: #e8894c; stroke-width: 2; stroke-linecap: square"/>
    <defs>
     <path id="m04058372e6" d="M 0 2.5 
C 0.663008 2.5 1.29895 2.236584 1.767767 1.767767 
C 2.236584 1.29895 2.5 0.663008 2.5 0 
C 2.5 -0.663008 2.236584 -1.29895 1.767767 -1.767767 
C 1.29895 -2.236584 0.663008 -2.5 0 -2.5 
C -0.663008 -2.5 -1.29895 -2.236584 -1.767767 -1.767767 
C -2.236584 -1.29895 -2.5 -0.663008 -2.5 0 
C -2.5 0.663008 -2.236584 1.29895 -1.767767 1.767767 
C -1.29895 2.236584 -0.663008 2.5 0 2.5 
z
" style="stroke: #e8894c"/>
    </defs>
    <g clip-path="url(#pfa11f0b1e4)">
     <use xlink:href="#m04058372e6" x="214.2" y="135.36" style="fill: #e8894c; stroke: #e8894c"/>
     <use xlink:href="#m04058372e6" x="162.91184" y="77.155341" style="fill: #e8894c; stroke: #e8894c"/>
     <use xlink:href="#m04058372e6" x="104.681774" y="106.793637" style="fill: #e8894c; stroke: #e8894c"/>
     <use xlink:href="#m04058372e6" x="86.333269" y="177.257333" style="fill: #e8894c; stroke: #e8894c"/>
     <use xlink:href="#m04058372e6" x="167.361685" y="207.259873" style="fill: #e8894c; stroke: #e8894c"/>
     <use xlink:href="#m04058372e6" x="214.2" y="135.36" style="fill: #e8894c; stroke: #e8894c"/>
    </g>
   </g>
   <g id="legend_1">
    <g id="line2d_15">
     <path d="M 1.586953 254.295 
L 3.836953 254.295 
L 6.086953 254.295 
" style="fill: none; stroke: #a04ebf; stroke-width: 2; stroke-linecap: square"/>
     <g>
      <use xlink:href="#m706d66d8be" x="3.836953" y="254.295" style="fill: #a04ebf; stroke: #a04ebf"/>
     </g>
    </g>
    <g id="text_12">
     <!-- Epigenomics &amp; Functional  (n=7) -->
     <g transform="translate(9.686953 257.85) scale(0.09 -0.09)">
      <defs>
       <path id="DejaVuSans-6d" d="M 3328 2828 
Q 3544 3216 3844 3400 
Q 4144 3584 4550 3584 
Q 5097 3584 5394 3201 
Q 5691 2819 5691 2113 
L 5691 0 
L 5113 0 
L 5113 2094 
Q 5113 2597 4934 2840 
Q 4756 3084 4391 3084 
Q 3944 3084 3684 2787 
Q 3425 2491 3425 1978 
L 3425 0 
L 2847 0 
L 2847 2094 
Q 2847 2600 2669 2842 
Q 2491 3084 2119 3084 
Q 1678 3084 1418 2786 
Q 1159 2488 1159 1978 
L 1159 0 
L 581 0 
L 581 3500 
L 1159 3500 
L 1159 2956 
Q 1356 3278 1631 3431 
Q 1906 3584 2284 3584 
Q 2666 3584 2933 3390 
Q 3200 3197 3328 2828 
z
" transform="scale(0.015625)"/>
       <path id="DejaVuSans-26" d="M 1556 2509 
Q 1272 2256 1139 2004 
Q 1006 1753 1006 1478 
Q 1006 1022 1337 719 
Q 1669 416 2169 416 
Q 2466 416 2725 514 
Q 2984 613 3213 813 
L 1556 2509 
z
M 1997 2859 
L 3584 1234 
Q 3769 1513 3872 1830 
Q 3975 2147 3994 2503 
L 4575 2503 
Q 4538 2091 4375 1687 
Q 4213 1284 3922 891 
L 4794 0 
L 4006 0 
L 3559 459 
Q 3234 181 2878 45 
Q 2522 -91 2113 -91 
Q 1359 -91 881 339 
Q 403 769 403 1441 
Q 403 1841 612 2192 
Q 822 2544 1241 2853 
Q 1091 3050 1012 3245 
Q 934 3441 934 3628 
Q 934 4134 1281 4442 
Q 1628 4750 2203 4750 
Q 2463 4750 2720 4694 
Q 2978 4638 3244 4525 
L 3244 3956 
Q 2972 4103 2725 4179 
Q 2478 4256 2266 4256 
Q 1938 4256 1733 4082 
Q 1528 3909 1528 3634 
Q 1528 3475 1620 3314 
Q 1713 3153 1997 2859 
z
" transform="scale(0.015625)"/>
       <path id="DejaVuSans-46" d="M 628 4666 
L 3309 4666 
L 3309 4134 
L 1259 4134 
L 1259 2759 
L 3109 2759 
L 3109 2228 
L 1259 2228 
L 1259 0 
L 628 0 
L 628 4666 
z
" transform="scale(0.015625)"/>
       <path id="DejaVuSans-28" d="M 1984 4856 
Q 1566 4138 1362 3434 
Q 1159 2731 1159 2009 
Q 1159 1288 1364 580 
Q 1569 -128 1984 -844 
L 1484 -844 
Q 1016 -109 783 600 
Q 550 1309 550 2009 
Q 550 2706 781 3412 
Q 1013 4119 1484 4856 
L 1984 4856 
z
" transform="scale(0.015625)"/>
       <path id="DejaVuSans-3d" d="M 678 2906 
L 4684 2906 
L 4684 2381 
L 678 2381 
L 678 2906 
z
M 678 1631 
L 4684 1631 
L 4684 1100 
L 678 1100 
L 678 1631 
z
" transform="scale(0.015625)"/>
       <path id="DejaVuSans-37" d="M 525 4666 
L 3525 4666 
L 3525 4397 
L 1831 0 
L 1172 0 
L 2766 4134 
L 525 4134 
L 525 4666 
z
" transform="scale(0.015625)"/>
       <path id="DejaVuSans-29" d="M 513 4856 
L 1013 4856 
Q 1481 4119 1714 3412 
Q 1947 2706 1947 2009 
Q 1947 1309 1714 600 
Q 1481 -109 1013 -844 
L 513 -844 
Q 928 -128 1133 580 
Q 1338 1288 1338 2009 
Q 1338 2731 1133 3434 
Q 928 4138 513 4856 
z
" transform="scale(0.015625)"/>
      </defs>
      <use xlink:href="#DejaVuSans-45"/>
      <use xlink:href="#DejaVuSans-70" transform="translate(63.183594 0)"/>
      <use xlink:href="#DejaVuSans-69" transform="translate(126.660156 0)"/>
      <use xlink:href="#DejaVuSans-67" transform="translate(154.443359 0)"/>
      <use xlink:href="#DejaVuSans-65" transform="translate(217.919922 0)"/>
      <use xlink:href="#DejaVuSans-6e" transform="translate(279.443359 0)"/>
      <use xlink:href="#DejaVuSans-6f" transform="translate(342.822266 0)"/>
      <use xlink:href="#DejaVuSans-6d" transform="translate(404.003906 0)"/>
      <use xlink:href="#DejaVuSans-69" transform="translate(501.416016 0)"/>
      <use xlink:href="#DejaVuSans-63" transform="translate(529.199219 0)"/>
      <use xlink:href="#DejaVuSans-73" transform="translate(584.179688 0)"/>
      <use xlink:href="#DejaVuSans-20" transform="translate(636.279297 0)"/>
      <use xlink:href="#DejaVuSans-26" transform="translate(668.066406 0)"/>
      <use xlink:href="#DejaVuSans-20" transform="translate(746.044922 0)"/>
      <use xlink:href="#DejaVuSans-46" transform="translate(777.832031 0)"/>
      <use xlink:href="#DejaVuSans-75" transform="translate(829.851562 0)"/>
      <use xlink:href="#DejaVuSans-6e" transform="translate(893.230469 0)"/>
      <use xlink:href="#DejaVuSans-63" transform="translate(956.609375 0)"/>
      <use xlink:href="#DejaVuSans-74" transform="translate(1011.589844 0)"/>
      <use xlink:href="#DejaVuSans-69" transform="translate(1050.798828 0)"/>
      <use xlink:href="#DejaVuSans-6f" transform="translate(1078.582031 0)"/>
      <use xlink:href="#DejaVuSans-6e" transform="translate(1139.763672 0)"/>
      <use xlink:href="#DejaVuSans-61" transform="translate(1203.142578 0)"/>
      <use xlink:href="#DejaVuSans-6c" transform="translate(1264.421875 0)"/>
      <use xlink:href="#DejaVuSans-20" transform="translate(1292.205078 0)"/>
      <use xlink:href="#DejaVuSans-20" transform="translate(1323.992188 0)"/>
      <use xlink:href="#DejaVuSans-28" transform="translate(1355.779297 0)"/>
      <use xlink:href="#DejaVuSans-6e" transform="translate(1394.792969 0)"/>
      <use xlink:href="#DejaVuSans-3d" transform="translate(1458.171875 0)"/>
      <use xlink:href="#DejaVuSans-37" transform="translate(1541.960938 0)"/>
      <use xlink:href="#DejaVuSans-29" transform="translate(1605.583984 0)"/>
     </g>
    </g>
    <g id="line2d_16">
     <path d="M 1.586953 267.776719 
L 3.836953 267.776719 
L 6.086953 267.776719 
" style="fill: none; stroke: #1f4fbf; stroke-width: 2; stroke-linecap: square"/>
     <g>
      <use xlink:href="#mcaf48ae85f" x="3.836953" y="267.776719" style="fill: #1f4fbf; stroke: #1f4fbf"/>
     </g>
    </g>
    <g id="text_13">
     <!-- DNA-level  (n=18) -->
     <g transform="translate(9.686953 271.331719) scale(0.09 -0.09)">
      <defs>
       <path id="DejaVuSans-4e" d="M 628 4666 
L 1478 4666 
L 3547 763 
L 3547 4666 
L 4159 4666 
L 4159 0 
L 3309 0 
L 1241 3903 
L 1241 0 
L 628 0 
L 628 4666 
z
" transform="scale(0.015625)"/>
       <path id="DejaVuSans-76" d="M 191 3500 
L 800 3500 
L 1894 563 
L 2988 3500 
L 3597 3500 
L 2284 0 
L 1503 0 
L 191 3500 
z
" transform="scale(0.015625)"/>
      </defs>
      <use xlink:href="#DejaVuSans-44"/>
      <use xlink:href="#DejaVuSans-4e" transform="translate(77.001953 0)"/>
      <use xlink:href="#DejaVuSans-41" transform="translate(151.806641 0)"/>
      <use xlink:href="#DejaVuSans-2d" transform="translate(217.964844 0)"/>
      <use xlink:href="#DejaVuSans-6c" transform="translate(254.048828 0)"/>
      <use xlink:href="#DejaVuSans-65" transform="translate(281.832031 0)"/>
      <use xlink:href="#DejaVuSans-76" transform="translate(343.355469 0)"/>
      <use xlink:href="#DejaVuSans-65" transform="translate(402.535156 0)"/>
      <use xlink:href="#DejaVuSans-6c" transform="translate(464.058594 0)"/>
      <use xlink:href="#DejaVuSans-20" transform="translate(491.841797 0)"/>
      <use xlink:href="#DejaVuSans-20" transform="translate(523.628906 0)"/>
      <use xlink:href="#DejaVuSans-28" transform="translate(555.416016 0)"/>
      <use xlink:href="#DejaVuSans-6e" transform="translate(594.429688 0)"/>
      <use xlink:href="#DejaVuSans-3d" transform="translate(657.808594 0)"/>
      <use xlink:href="#DejaVuSans-31" transform="translate(741.597656 0)"/>
      <use xlink:href="#DejaVuSans-38" transform="translate(805.220703 0)"/>
      <use xlink:href="#DejaVuSans-29" transform="translate(868.84375 0)"/>
     </g>
    </g>
    <g id="line2d_17">
     <path d="M 166.700391 254.295 
L 168.950391 254.295 
L 171.200391 254.295 
" style="fill: none; stroke: #4fb99f; stroke-width: 2; stroke-linecap: square"/>
     <g>
      <use xlink:href="#m8a553d3fd2" x="168.950391" y="254.295" style="fill: #4fb99f; stroke: #4fb99f"/>
     </g>
    </g>
    <g id="text_14">
     <!-- Other Modalities  (n=11) -->
     <g transform="translate(174.800391 257.85) scale(0.09 -0.09)">
      <defs>
       <path id="DejaVuSans-4f" d="M 2522 4238 
Q 1834 4238 1429 3725 
Q 1025 3213 1025 2328 
Q 1025 1447 1429 934 
Q 1834 422 2522 422 
Q 3209 422 3611 934 
Q 4013 1447 4013 2328 
Q 4013 3213 3611 3725 
Q 3209 4238 2522 4238 
z
M 2522 4750 
Q 3503 4750 4090 4092 
Q 4678 3434 4678 2328 
Q 4678 1225 4090 567 
Q 3503 -91 2522 -91 
Q 1538 -91 948 565 
Q 359 1222 359 2328 
Q 359 3434 948 4092 
Q 1538 4750 2522 4750 
z
" transform="scale(0.015625)"/>
      </defs>
      <use xlink:href="#DejaVuSans-4f"/>
      <use xlink:href="#DejaVuSans-74" transform="translate(78.710938 0)"/>
      <use xlink:href="#DejaVuSans-68" transform="translate(117.919922 0)"/>
      <use xlink:href="#DejaVuSans-65" transform="translate(181.298828 0)"/>
      <use xlink:href="#DejaVuSans-72" transform="translate(242.822266 0)"/>
      <use xlink:href="#DejaVuSans-20" transform="translate(283.935547 0)"/>
      <use xlink:href="#DejaVuSans-4d" transform="translate(315.722656 0)"/>
      <use xlink:href="#DejaVuSans-6f" transform="translate(402.001953 0)"/>
      <use xlink:href="#DejaVuSans-64" transform="translate(463.183594 0)"/>
      <use xlink:href="#DejaVuSans-61" transform="translate(526.660156 0)"/>
      <use xlink:href="#DejaVuSans-6c" transform="translate(587.939453 0)"/>
      <use xlink:href="#DejaVuSans-69" transform="translate(615.722656 0)"/>
      <use xlink:href="#DejaVuSans-74" transform="translate(643.505859 0)"/>
      <use xlink:href="#DejaVuSans-69" transform="translate(682.714844 0)"/>
      <use xlink:href="#DejaVuSans-65" transform="translate(710.498047 0)"/>
      <use xlink:href="#DejaVuSans-73" transform="translate(772.021484 0)"/>
      <use xlink:href="#DejaVuSans-20" transform="translate(824.121094 0)"/>
      <use xlink:href="#DejaVuSans-20" transform="translate(855.908203 0)"/>
      <use xlink:href="#DejaVuSans-28" transform="translate(887.695312 0)"/>
      <use xlink:href="#DejaVuSans-6e" transform="translate(926.708984 0)"/>
      <use xlink:href="#DejaVuSans-3d" transform="translate(990.087891 0)"/>
      <use xlink:href="#DejaVuSans-31" transform="translate(1073.876953 0)"/>
      <use xlink:href="#DejaVuSans-31" transform="translate(1137.5 0)"/>
      <use xlink:href="#DejaVuSans-29" transform="translate(1201.123047 0)"/>
     </g>
    </g>
    <g id="line2d_18">
     <path d="M 166.700391 267.776719 
L 168.950391 267.776719 
L 171.200391 267.776719 
" style="fill: none; stroke: #e8894c; stroke-width: 2; stroke-linecap: square"/>
     <g>
      <use xlink:href="#m04058372e6" x="168.950391" y="267.776719" style="fill: #e8894c; stroke: #e8894c"/>
     </g>
    </g>
    <g id="text_15">
     <!-- Transcriptomics  (n=14) -->
     <g transform="translate(174.800391 271.331719) scale(0.09 -0.09)">
      <defs>
       <path id="DejaVuSans-54" d="M -19 4666 
L 3928 4666 
L 3928 4134 
L 2272 4134 
L 2272 0 
L 1638 0 
L 1638 4134 
L -19 4134 
L -19 4666 
z
" transform="scale(0.015625)"/>
       <path id="DejaVuSans-34" d="M 2419 4116 
L 825 1625 
L 2419 1625 
L 2419 4116 
z
M 2253 4666 
L 3047 4666 
L 3047 1625 
L 3713 1625 
L 3713 1100 
L 3047 1100 
L 3047 0 
L 2419 0 
L 2419 1100 
L 313 1100 
L 313 1709 
L 2253 4666 
z
" transform="scale(0.015625)"/>
      </defs>
      <use xlink:href="#DejaVuSans-54"/>
      <use xlink:href="#DejaVuSans-72" transform="translate(46.333984 0)"/>
      <use xlink:href="#DejaVuSans-61" transform="translate(87.447266 0)"/>
      <use xlink:href="#DejaVuSans-6e" transform="translate(148.726562 0)"/>
      <use xlink:href="#DejaVuSans-73" transform="translate(212.105469 0)"/>
      <use xlink:href="#DejaVuSans-63" transform="translate(264.205078 0)"/>
      <use xlink:href="#DejaVuSans-72" transform="translate(319.185547 0)"/>
      <use xlink:href="#DejaVuSans-69" transform="translate(360.298828 0)"/>
      <use xlink:href="#DejaVuSans-70" transform="translate(388.082031 0)"/>
      <use xlink:href="#DejaVuSans-74" transform="translate(451.558594 0)"/>
      <use xlink:href="#DejaVuSans-6f" transform="translate(490.767578 0)"/>
      <use xlink:href="#DejaVuSans-6d" transform="translate(551.949219 0)"/>
      <use xlink:href="#DejaVuSans-69" transform="translate(649.361328 0)"/>
      <use xlink:href="#DejaVuSans-63" transform="translate(677.144531 0)"/>
      <use xlink:href="#DejaVuSans-73" transform="translate(732.125 0)"/>
      <use xlink:href="#DejaVuSans-20" transform="translate(784.224609 0)"/>
      <use xlink:href="#DejaVuSans-20" transform="translate(816.011719 0)"/>
      <use xlink:href="#DejaVuSans-28" transform="translate(847.798828 0)"/>
      <use xlink:href="#DejaVuSans-6e" transform="translate(886.8125 0)"/>
      <use xlink:href="#DejaVuSans-3d" transform="translate(950.191406 0)"/>
      <use xlink:href="#DejaVuSans-31" transform="translate(1033.980469 0)"/>
      <use xlink:href="#DejaVuSans-34" transform="translate(1097.603516 0)"/>
      <use xlink:href="#DejaVuSans-29" transform="translate(1161.226562 0)"/>
     </g>
    </g>
   </g>
  </g>
 </g>
 <defs>
  <clipPath id="pfa11f0b1e4">
   <path d="M 244.8 135.36 
C 244.8 122.123065 242.192612 109.014843 237.127057 96.78551 
C 232.061501 84.556177 224.63629 73.443563 215.276364 64.083636 
C 205.916437 54.72371 194.803823 47.298499 182.57449 42.232943 
C 170.345157 37.167388 157.236935 34.56 144 34.56 
C 130.763065 34.56 117.654843 37.167388 105.42551 42.232943 
C 93.196177 47.298499 82.083563 54.72371 72.723636 64.083636 
C 63.36371 73.443563 55.938499 84.556177 50.872943 96.78551 
C 45.807388 109.014843 43.2 122.123065 43.2 135.36 
C 43.2 148.596935 45.807388 161.705157 50.872943 173.93449 
C 55.938499 186.163823 63.36371 197.276437 72.723636 206.636364 
C 82.083563 215.99629 93.196177 223.421501 105.42551 228.487057 
C 117.654843 233.552612 130.763065 236.16 144 236.16 
C 157.236935 236.16 170.345157 233.552612 182.57449 228.487057 
C 194.803823 223.421501 205.916437 215.99629 215.276364 206.636364 
C 224.63629 197.276437 232.061501 186.163823 237.127057 173.93449 
C 242.192612 161.705157 244.8 148.596935 244.8 135.36 
M 144 135.36 
C 144 135.36 144 135.36 144 135.36 
C 144 135.36 144 135.36 144 135.36 
C 144 135.36 144 135.36 144 135.36 
C 144 135.36 144 135.36 144 135.36 
C 144 135.36 144 135.36 144 135.36 
C 144 135.36 144 135.36 144 135.36 
C 144 135.36 144 135.36 144 135.36 
C 144 135.36 144 135.36 144 135.36 
C 144 135.36 144 135.36 144 135.36 
C 144 135.36 144 135.36 144 135.36 
C 144 135.36 144 135.36 144 135.36 
C 144 135.36 144 135.36 144 135.36 
C 144 135.36 144 135.36 144 135.36 
C 144 135.36 144 135.36 144 135.36 
C 144 135.36 144 135.36 144 135.36 
C 144 135.36 144 135.36 144 135.36 
z
"/>
  </clipPath>
 </defs>
</svg>
