<?xml version="1.0" encoding="utf-8" standalone="no"?>
<!DOCTYPE svg PUBLIC "-//W3C//DTD SVG 1.1//EN"
  "http://www.w3.org/Graphics/SVG/1.1/DTD/svg11.dtd">
<svg xmlns:xlink="http://www.w3.org/1999/xlink" width="648pt" height="612pt" viewBox="0 0 648 612" xmlns="http://www.w3.org/2000/svg" version="1.1">
 <metadata>
  <rdf:RDF xmlns:dc="http://purl.org/dc/elements/1.1/" xmlns:cc="http://creativecommons.org/ns#" xmlns:rdf="http://www.w3.org/1999/02/22-rdf-syntax-ns#">
   <cc:Work>
    <dc:type rdf:resource="http://purl.org/dc/dcmitype/StillImage"/>
    <dc:date>2026-05-23T18:15:58.106241</dc:date>
    <dc:format>image/svg+xml</dc:format>
    <dc:creator>
     <cc:Agent>
      <dc:title>Matplotlib v3.10.8, https://matplotlib.org/</dc:title>
     </cc:Agent>
    </dc:creator>
   </cc:Work>
  </rdf:RDF>
 </metadata>
 <defs>
  <style type="text/css">*{stroke-linejoin: round; stroke-linecap: butt}</style>
 </defs>
 <g id="figure_1">
  <g id="patch_1">
   <path d="M 0 612 
L 648 612 
L 648 0 
L 0 0 
z
" style="fill: #ffffff"/>
  </g>
  <g id="axes_1">
   <g id="patch_2">
    <path d="M 544.32 293.76 
C 544.32 264.827843 538.620996 236.177014 527.549139 209.447186 
C 516.477281 182.717358 500.247891 158.428359 479.789766 137.970234 
C 459.331641 117.512109 435.042642 101.282719 408.312814 90.210861 
C 381.582986 79.139004 352.932157 73.44 324 73.44 
C 295.067843 73.44 266.417014 79.139004 239.687186 90.210861 
C 212.957358 101.282719 188.668359 117.512109 168.210234 137.970234 
C 147.752109 158.428359 131.522719 182.717358 120.450861 209.447186 
C 109.379004 236.177014 103.68 264.827843 103.68 293.76 
C 103.68 322.692157 109.379004 351.342986 120.450861 378.072814 
C 131.522719 404.802642 147.752109 429.091641 168.210234 449.549766 
C 188.668359 470.007891 212.957358 486.237281 239.687186 497.309139 
C 266.417014 508.380996 295.067843 514.08 324 514.08 
C 352.932157 514.08 381.582986 508.380996 408.312814 497.309139 
C 435.042642 486.237281 459.331641 470.007891 479.789766 449.549766 
C 500.247891 429.091641 516.477281 404.802642 527.549139 378.072814 
C 538.620996 351.342986 544.32 322.692157 544.32 293.76 
M 324 293.76 
C 324 293.76 324 293.76 324 293.76 
C 324 293.76 324 293.76 324 293.76 
C 324 293.76 324 293.76 324 293.76 
C 324 293.76 324 293.76 324 293.76 
C 324 293.76 324 293.76 324 293.76 
C 324 293.76 324 293.76 324 293.76 
C 324 293.76 324 293.76 324 293.76 
C 324 293.76 324 293.76 324 293.76 
C 324 293.76 324 293.76 324 293.76 
C 324 293.76 324 293.76 324 293.76 
C 324 293.76 324 293.76 324 293.76 
C 324 293.76 324 293.76 324 293.76 
C 324 293.76 324 293.76 324 293.76 
C 324 293.76 324 293.76 324 293.76 
C 324 293.76 324 293.76 324 293.76 
C 324 293.76 324 293.76 324 293.76 
z
" style="fill: #ffffff"/>
   </g>
   <g id="matplotlib.axis_1">
    <g id="xtick_1">
     <g id="line2d_1">
      <path d="M 324 293.76 
L 544.32 293.76 
" clip-path="url(#pfdaef0b6fc)" style="fill: none; stroke-dasharray: 0.8,1.32; stroke-dashoffset: 0; stroke: #888888; stroke-opacity: 0.55; stroke-width: 0.8"/>
     </g>
    </g>
    <g id="xtick_2">
     <g id="line2d_2">
      <path d="M 324 293.76 
L 392.082624 84.223228 
" clip-path="url(#pfdaef0b6fc)" style="fill: none; stroke-dasharray: 0.8,1.32; stroke-dashoffset: 0; stroke: #888888; stroke-opacity: 0.55; stroke-width: 0.8"/>
     </g>
    </g>
    <g id="xtick_3">
     <g id="line2d_3">
      <path d="M 324 293.76 
L 145.757376 164.259153 
" clip-path="url(#pfdaef0b6fc)" style="fill: none; stroke-dasharray: 0.8,1.32; stroke-dashoffset: 0; stroke: #888888; stroke-opacity: 0.55; stroke-width: 0.8"/>
     </g>
    </g>
    <g id="xtick_4">
     <g id="line2d_4">
      <path d="M 324 293.76 
L 145.757376 423.260847 
" clip-path="url(#pfdaef0b6fc)" style="fill: none; stroke-dasharray: 0.8,1.32; stroke-dashoffset: 0; stroke: #888888; stroke-opacity: 0.55; stroke-width: 0.8"/>
     </g>
    </g>
    <g id="xtick_5">
     <g id="line2d_5">
      <path d="M 324 293.76 
L 392.082624 503.296772 
" clip-path="url(#pfdaef0b6fc)" style="fill: none; stroke-dasharray: 0.8,1.32; stroke-dashoffset: 0; stroke: #888888; stroke-opacity: 0.55; stroke-width: 0.8"/>
     </g>
    </g>
   </g>
   <g id="matplotlib.axis_2">
    <g id="ytick_1">
     <g id="line2d_6">
      <path d="M 324 293.76 
C 324 293.76 324 293.76 324 293.76 
C 324 293.76 324 293.76 324 293.76 
C 324 293.76 324 293.76 324 293.76 
C 324 293.76 324 293.76 324 293.76 
C 324 293.76 324 293.76 324 293.76 
C 324 293.76 324 293.76 324 293.76 
C 324 293.76 324 293.76 324 293.76 
C 324 293.76 324 293.76 324 293.76 
C 324 293.76 324 293.76 324 293.76 
C 324 293.76 324 293.76 324 293.76 
C 324 293.76 324 293.76 324 293.76 
C 324 293.76 324 293.76 324 293.76 
C 324 293.76 324 293.76 324 293.76 
C 324 293.76 324 293.76 324 293.76 
C 324 293.76 324 293.76 324 293.76 
C 324 293.76 324 293.76 324 293.76 
" clip-path="url(#pfdaef0b6fc)" style="fill: none; stroke-dasharray: 0.8,1.32; stroke-dashoffset: 0; stroke: #888888; stroke-opacity: 0.55; stroke-width: 0.8"/>
     </g>
     <g id="text_1">
      <!-- 70 -->
      <g style="fill: #666666" transform="translate(324 292.09625) scale(0.08 -0.08)">
       <defs>
        <path id="DejaVuSans-37" d="M 525 4666 
L 3525 4666 
L 3525 4397 
L 1831 0 
L 1172 0 
L 2766 4134 
L 525 4134 
L 525 4666 
z
" transform="scale(0.015625)"/>
        <path id="DejaVuSans-30" d="M 2034 4250 
Q 1547 4250 1301 3770 
Q 1056 3291 1056 2328 
Q 1056 1369 1301 889 
Q 1547 409 2034 409 
Q 2525 409 2770 889 
Q 3016 1369 3016 2328 
Q 3016 3291 2770 3770 
Q 2525 4250 2034 4250 
z
M 2034 4750 
Q 2819 4750 3233 4129 
Q 3647 3509 3647 2328 
Q 3647 1150 3233 529 
Q 2819 -91 2034 -91 
Q 1250 -91 836 529 
Q 422 1150 422 2328 
Q 422 3509 836 4129 
Q 1250 4750 2034 4750 
z
" transform="scale(0.015625)"/>
       </defs>
       <use xlink:href="#DejaVuSans-37"/>
       <use xlink:href="#DejaVuSans-30" transform="translate(63.623047 0)"/>
      </g>
     </g>
    </g>
    <g id="ytick_2">
     <g id="line2d_7">
      <path d="M 397.44 293.76 
C 397.44 284.115948 395.540332 274.565671 391.849713 265.655729 
C 388.159094 256.745786 382.749297 248.649453 375.929922 241.830078 
C 369.110547 235.010703 361.014214 229.600906 352.104271 225.910287 
C 343.194329 222.219668 333.644052 220.32 324 220.32 
C 314.355948 220.32 304.805671 222.219668 295.895729 225.910287 
C 286.985786 229.600906 278.889453 235.010703 272.070078 241.830078 
C 265.250703 248.649453 259.840906 256.745786 256.150287 265.655729 
C 252.459668 274.565671 250.56 284.115948 250.56 293.76 
C 250.56 303.404052 252.459668 312.954329 256.150287 321.864271 
C 259.840906 330.774214 265.250703 338.870547 272.070078 345.689922 
C 278.889453 352.509297 286.985786 357.919094 295.895729 361.609713 
C 304.805671 365.300332 314.355948 367.2 324 367.2 
C 333.644052 367.2 343.194329 365.300332 352.104271 361.609713 
C 361.014214 357.919094 369.110547 352.509297 375.929922 345.689922 
C 382.749297 338.870547 388.159094 330.774214 391.849713 321.864271 
C 395.540332 312.954329 397.44 303.404052 397.44 293.76 
" clip-path="url(#pfdaef0b6fc)" style="fill: none; stroke-dasharray: 0.8,1.32; stroke-dashoffset: 0; stroke: #888888; stroke-opacity: 0.55; stroke-width: 0.8"/>
     </g>
     <g id="text_2">
      <!-- 80 -->
      <g style="fill: #666666" transform="translate(324 218.65625) scale(0.08 -0.08)">
       <defs>
        <path id="DejaVuSans-38" d="M 2034 2216 
Q 1584 2216 1326 1975 
Q 1069 1734 1069 1313 
Q 1069 891 1326 650 
Q 1584 409 2034 409 
Q 2484 409 2743 651 
Q 3003 894 3003 1313 
Q 3003 1734 2745 1975 
Q 2488 2216 2034 2216 
z
M 1403 2484 
Q 997 2584 770 2862 
Q 544 3141 544 3541 
Q 544 4100 942 4425 
Q 1341 4750 2034 4750 
Q 2731 4750 3128 4425 
Q 3525 4100 3525 3541 
Q 3525 3141 3298 2862 
Q 3072 2584 2669 2484 
Q 3125 2378 3379 2068 
Q 3634 1759 3634 1313 
Q 3634 634 3220 271 
Q 2806 -91 2034 -91 
Q 1263 -91 848 271 
Q 434 634 434 1313 
Q 434 1759 690 2068 
Q 947 2378 1403 2484 
z
M 1172 3481 
Q 1172 3119 1398 2916 
Q 1625 2713 2034 2713 
Q 2441 2713 2670 2916 
Q 2900 3119 2900 3481 
Q 2900 3844 2670 4047 
Q 2441 4250 2034 4250 
Q 1625 4250 1398 4047 
Q 1172 3844 1172 3481 
z
" transform="scale(0.015625)"/>
       </defs>
       <use xlink:href="#DejaVuSans-38"/>
       <use xlink:href="#DejaVuSans-30" transform="translate(63.623047 0)"/>
      </g>
     </g>
    </g>
    <g id="ytick_3">
     <g id="line2d_8">
      <path d="M 470.88 293.76 
C 470.88 274.471895 467.080664 255.371343 459.699426 237.551457 
C 452.318188 219.731572 441.498594 203.538906 427.859844 189.900156 
C 414.221094 176.261406 398.028428 165.441812 380.208543 158.060574 
C 362.388657 150.679336 343.288105 146.88 324 146.88 
C 304.711895 146.88 285.611343 150.679336 267.791457 158.060574 
C 249.971572 165.441812 233.778906 176.261406 220.140156 189.900156 
C 206.501406 203.538906 195.681812 219.731572 188.300574 237.551457 
C 180.919336 255.371343 177.12 274.471895 177.12 293.76 
C 177.12 313.048105 180.919336 332.148657 188.300574 349.968543 
C 195.681812 367.788428 206.501406 383.981094 220.140156 397.619844 
C 233.778906 411.258594 249.971572 422.078188 267.791457 429.459426 
C 285.611343 436.840664 304.711895 440.64 324 440.64 
C 343.288105 440.64 362.388657 436.840664 380.208543 429.459426 
C 398.028428 422.078188 414.221094 411.258594 427.859844 397.619844 
C 441.498594 383.981094 452.318188 367.788428 459.699426 349.968543 
C 467.080664 332.148657 470.88 313.048105 470.88 293.76 
" clip-path="url(#pfdaef0b6fc)" style="fill: none; stroke-dasharray: 0.8,1.32; stroke-dashoffset: 0; stroke: #888888; stroke-opacity: 0.55; stroke-width: 0.8"/>
     </g>
     <g id="text_3">
      <!-- 90 -->
      <g style="fill: #666666" transform="translate(324 145.21625) scale(0.08 -0.08)">
       <defs>
        <path id="DejaVuSans-39" d="M 703 97 
L 703 672 
Q 941 559 1184 500 
Q 1428 441 1663 441 
Q 2288 441 2617 861 
Q 2947 1281 2994 2138 
Q 2813 1869 2534 1725 
Q 2256 1581 1919 1581 
Q 1219 1581 811 2004 
Q 403 2428 403 3163 
Q 403 3881 828 4315 
Q 1253 4750 1959 4750 
Q 2769 4750 3195 4129 
Q 3622 3509 3622 2328 
Q 3622 1225 3098 567 
Q 2575 -91 1691 -91 
Q 1453 -91 1209 -44 
Q 966 3 703 97 
z
M 1959 2075 
Q 2384 2075 2632 2365 
Q 2881 2656 2881 3163 
Q 2881 3666 2632 3958 
Q 2384 4250 1959 4250 
Q 1534 4250 1286 3958 
Q 1038 3666 1038 3163 
Q 1038 2656 1286 2365 
Q 1534 2075 1959 2075 
z
" transform="scale(0.015625)"/>
       </defs>
       <use xlink:href="#DejaVuSans-39"/>
       <use xlink:href="#DejaVuSans-30" transform="translate(63.623047 0)"/>
      </g>
     </g>
    </g>
    <g id="ytick_4">
     <g id="line2d_9">
      <path d="M 544.32 293.76 
C 544.32 264.827843 538.620996 236.177014 527.549139 209.447186 
C 516.477281 182.717358 500.247891 158.428359 479.789766 137.970234 
C 459.331641 117.512109 435.042642 101.282719 408.312814 90.210861 
C 381.582986 79.139004 352.932157 73.44 324 73.44 
C 295.067843 73.44 266.417014 79.139004 239.687186 90.210861 
C 212.957358 101.282719 188.668359 117.512109 168.210234 137.970234 
C 147.752109 158.428359 131.522719 182.717358 120.450861 209.447186 
C 109.379004 236.177014 103.68 264.827843 103.68 293.76 
C 103.68 322.692157 109.379004 351.342986 120.450861 378.072814 
C 131.522719 404.802642 147.752109 429.091641 168.210234 449.549766 
C 188.668359 470.007891 212.957358 486.237281 239.687186 497.309139 
C 266.417014 508.380996 295.067843 514.08 324 514.08 
C 352.932157 514.08 381.582986 508.380996 408.312814 497.309139 
C 435.042642 486.237281 459.331641 470.007891 479.789766 449.549766 
C 500.247891 429.091641 516.477281 404.802642 527.549139 378.072814 
C 538.620996 351.342986 544.32 322.692157 544.32 293.76 
" clip-path="url(#pfdaef0b6fc)" style="fill: none; stroke-dasharray: 0.8,1.32; stroke-dashoffset: 0; stroke: #888888; stroke-opacity: 0.55; stroke-width: 0.8"/>
     </g>
     <g id="text_4">
      <!-- 100 -->
      <g style="fill: #666666" transform="translate(324 71.77625) scale(0.08 -0.08)">
       <defs>
        <path id="DejaVuSans-31" d="M 794 531 
L 1825 531 
L 1825 4091 
L 703 3866 
L 703 4441 
L 1819 4666 
L 2450 4666 
L 2450 531 
L 3481 531 
L 3481 0 
L 794 0 
L 794 531 
z
" transform="scale(0.015625)"/>
       </defs>
       <use xlink:href="#DejaVuSans-31"/>
       <use xlink:href="#DejaVuSans-30" transform="translate(63.623047 0)"/>
       <use xlink:href="#DejaVuSans-30" transform="translate(127.246094 0)"/>
      </g>
     </g>
    </g>
   </g>
   <g id="patch_3">
    <path d="M 497.1552 293.76 
L 380.231204 120.698148 
L 176.388701 186.514114 
L 160.544912 412.517073 
L 385.52652 483.119157 
z
" clip-path="url(#pfdaef0b6fc)" style="fill: #1f4fbf; opacity: 0.13; stroke: #1f4fbf; stroke-linejoin: miter"/>
   </g>
   <g id="patch_4">
    <path d="M 397.44 293.76 
L 355.771891 195.976173 
L 264.585792 250.593051 
L 151.698797 418.944152 
L 383.004941 475.358535 
z
" clip-path="url(#pfdaef0b6fc)" style="fill: #c13b3b; opacity: 0.13; stroke: #c13b3b; stroke-linejoin: miter"/>
   </g>
   <g id="patch_5">
    <path d="M 544.32 293.76 
C 544.32 264.827843 538.620996 236.177014 527.549139 209.447186 
C 516.477281 182.717358 500.247891 158.428359 479.789766 137.970234 
C 459.331641 117.512109 435.042642 101.282719 408.312814 90.210861 
C 381.582986 79.139004 352.932157 73.44 324 73.44 
C 295.067843 73.44 266.417014 79.139004 239.687186 90.210861 
C 212.957358 101.282719 188.668359 117.512109 168.210234 137.970234 
C 147.752109 158.428359 131.522719 182.717358 120.450861 209.447186 
C 109.379004 236.177014 103.68 264.827843 103.68 293.76 
C 103.68 322.692157 109.379004 351.342986 120.450861 378.072814 
C 131.522719 404.802642 147.752109 429.091641 168.210234 449.549766 
C 188.668359 470.007891 212.957358 486.237281 239.687186 497.309139 
C 266.417014 508.380996 295.067843 514.08 324 514.08 
C 352.932157 514.08 381.582986 508.380996 408.312814 497.309139 
C 435.042642 486.237281 459.331641 470.007891 479.789766 449.549766 
C 500.247891 429.091641 516.477281 404.802642 527.549139 378.072814 
C 538.620996 351.342986 544.32 322.692157 544.32 293.76 
" style="fill: none; stroke: #cccccc; stroke-width: 0.8; stroke-linejoin: miter; stroke-linecap: square"/>
   </g>
   <g id="text_5">
    <!-- data exploration -->
    <g style="fill: #222222" transform="translate(523.176492 296.657344) scale(0.105 -0.105)">
     <defs>
      <path id="DejaVuSans-64" d="M 2906 2969 
L 2906 4863 
L 3481 4863 
L 3481 0 
L 2906 0 
L 2906 525 
Q 2725 213 2448 61 
Q 2172 -91 1784 -91 
Q 1150 -91 751 415 
Q 353 922 353 1747 
Q 353 2572 751 3078 
Q 1150 3584 1784 3584 
Q 2172 3584 2448 3432 
Q 2725 3281 2906 2969 
z
M 947 1747 
Q 947 1113 1208 752 
Q 1469 391 1925 391 
Q 2381 391 2643 752 
Q 2906 1113 2906 1747 
Q 2906 2381 2643 2742 
Q 2381 3103 1925 3103 
Q 1469 3103 1208 2742 
Q 947 2381 947 1747 
z
" transform="scale(0.015625)"/>
      <path id="DejaVuSans-61" d="M 2194 1759 
Q 1497 1759 1228 1600 
Q 959 1441 959 1056 
Q 959 750 1161 570 
Q 1363 391 1709 391 
Q 2188 391 2477 730 
Q 2766 1069 2766 1631 
L 2766 1759 
L 2194 1759 
z
M 3341 1997 
L 3341 0 
L 2766 0 
L 2766 531 
Q 2569 213 2275 61 
Q 1981 -91 1556 -91 
Q 1019 -91 701 211 
Q 384 513 384 1019 
Q 384 1609 779 1909 
Q 1175 2209 1959 2209 
L 2766 2209 
L 2766 2266 
Q 2766 2663 2505 2880 
Q 2244 3097 1772 3097 
Q 1472 3097 1187 3025 
Q 903 2953 641 2809 
L 641 3341 
Q 956 3463 1253 3523 
Q 1550 3584 1831 3584 
Q 2591 3584 2966 3190 
Q 3341 2797 3341 1997 
z
" transform="scale(0.015625)"/>
      <path id="DejaVuSans-74" d="M 1172 4494 
L 1172 3500 
L 2356 3500 
L 2356 3053 
L 1172 3053 
L 1172 1153 
Q 1172 725 1289 603 
Q 1406 481 1766 481 
L 2356 481 
L 2356 0 
L 1766 0 
Q 1100 0 847 248 
Q 594 497 594 1153 
L 594 3053 
L 172 3053 
L 172 3500 
L 594 3500 
L 594 4494 
L 1172 4494 
z
" transform="scale(0.015625)"/>
      <path id="DejaVuSans-20" transform="scale(0.015625)"/>
      <path id="DejaVuSans-65" d="M 3597 1894 
L 3597 1613 
L 953 1613 
Q 991 1019 1311 708 
Q 1631 397 2203 397 
Q 2534 397 2845 478 
Q 3156 559 3463 722 
L 3463 178 
Q 3153 47 2828 -22 
Q 2503 -91 2169 -91 
Q 1331 -91 842 396 
Q 353 884 353 1716 
Q 353 2575 817 3079 
Q 1281 3584 2069 3584 
Q 2775 3584 3186 3129 
Q 3597 2675 3597 1894 
z
M 3022 2063 
Q 3016 2534 2758 2815 
Q 2500 3097 2075 3097 
Q 1594 3097 1305 2825 
Q 1016 2553 972 2059 
L 3022 2063 
z
" transform="scale(0.015625)"/>
      <path id="DejaVuSans-78" d="M 3513 3500 
L 2247 1797 
L 3578 0 
L 2900 0 
L 1881 1375 
L 863 0 
L 184 0 
L 1544 1831 
L 300 3500 
L 978 3500 
L 1906 2253 
L 2834 3500 
L 3513 3500 
z
" transform="scale(0.015625)"/>
      <path id="DejaVuSans-70" d="M 1159 525 
L 1159 -1331 
L 581 -1331 
L 581 3500 
L 1159 3500 
L 1159 2969 
Q 1341 3281 1617 3432 
Q 1894 3584 2278 3584 
Q 2916 3584 3314 3078 
Q 3713 2572 3713 1747 
Q 3713 922 3314 415 
Q 2916 -91 2278 -91 
Q 1894 -91 1617 61 
Q 1341 213 1159 525 
z
M 3116 1747 
Q 3116 2381 2855 2742 
Q 2594 3103 2138 3103 
Q 1681 3103 1420 2742 
Q 1159 2381 1159 1747 
Q 1159 1113 1420 752 
Q 1681 391 2138 391 
Q 2594 391 2855 752 
Q 3116 1113 3116 1747 
z
" transform="scale(0.015625)"/>
      <path id="DejaVuSans-6c" d="M 603 4863 
L 1178 4863 
L 1178 0 
L 603 0 
L 603 4863 
z
" transform="scale(0.015625)"/>
      <path id="DejaVuSans-6f" d="M 1959 3097 
Q 1497 3097 1228 2736 
Q 959 2375 959 1747 
Q 959 1119 1226 758 
Q 1494 397 1959 397 
Q 2419 397 2687 759 
Q 2956 1122 2956 1747 
Q 2956 2369 2687 2733 
Q 2419 3097 1959 3097 
z
M 1959 3584 
Q 2709 3584 3137 3096 
Q 3566 2609 3566 1747 
Q 3566 888 3137 398 
Q 2709 -91 1959 -91 
Q 1206 -91 779 398 
Q 353 888 353 1747 
Q 353 2609 779 3096 
Q 1206 3584 1959 3584 
z
" transform="scale(0.015625)"/>
      <path id="DejaVuSans-72" d="M 2631 2963 
Q 2534 3019 2420 3045 
Q 2306 3072 2169 3072 
Q 1681 3072 1420 2755 
Q 1159 2438 1159 1844 
L 1159 0 
L 581 0 
L 581 3500 
L 1159 3500 
L 1159 2956 
Q 1341 3275 1631 3429 
Q 1922 3584 2338 3584 
Q 2397 3584 2469 3576 
Q 2541 3569 2628 3553 
L 2631 2963 
z
" transform="scale(0.015625)"/>
      <path id="DejaVuSans-69" d="M 603 3500 
L 1178 3500 
L 1178 0 
L 603 0 
L 603 3500 
z
M 603 4863 
L 1178 4863 
L 1178 4134 
L 603 4134 
L 603 4863 
z
" transform="scale(0.015625)"/>
      <path id="DejaVuSans-6e" d="M 3513 2113 
L 3513 0 
L 2938 0 
L 2938 2094 
Q 2938 2591 2744 2837 
Q 2550 3084 2163 3084 
Q 1697 3084 1428 2787 
Q 1159 2491 1159 1978 
L 1159 0 
L 581 0 
L 581 3500 
L 1159 3500 
L 1159 2956 
Q 1366 3272 1645 3428 
Q 1925 3584 2291 3584 
Q 2894 3584 3203 3211 
Q 3513 2838 3513 2113 
z
" transform="scale(0.015625)"/>
     </defs>
     <use xlink:href="#DejaVuSans-64"/>
     <use xlink:href="#DejaVuSans-61" transform="translate(63.476562 0)"/>
     <use xlink:href="#DejaVuSans-74" transform="translate(124.755859 0)"/>
     <use xlink:href="#DejaVuSans-61" transform="translate(163.964844 0)"/>
     <use xlink:href="#DejaVuSans-20" transform="translate(225.244141 0)"/>
     <use xlink:href="#DejaVuSans-65" transform="translate(257.03125 0)"/>
     <use xlink:href="#DejaVuSans-78" transform="translate(316.804688 0)"/>
     <use xlink:href="#DejaVuSans-70" transform="translate(375.984375 0)"/>
     <use xlink:href="#DejaVuSans-6c" transform="translate(439.460938 0)"/>
     <use xlink:href="#DejaVuSans-6f" transform="translate(467.244141 0)"/>
     <use xlink:href="#DejaVuSans-72" transform="translate(528.425781 0)"/>
     <use xlink:href="#DejaVuSans-61" transform="translate(569.539062 0)"/>
     <use xlink:href="#DejaVuSans-74" transform="translate(630.818359 0)"/>
     <use xlink:href="#DejaVuSans-69" transform="translate(670.027344 0)"/>
     <use xlink:href="#DejaVuSans-6f" transform="translate(697.810547 0)"/>
     <use xlink:href="#DejaVuSans-6e" transform="translate(758.992188 0)"/>
    </g>
   </g>
   <g id="text_6">
    <!-- method selection -->
    <g style="fill: #222222" transform="translate(353.350418 66.166895) scale(0.105 -0.105)">
     <defs>
      <path id="DejaVuSans-6d" d="M 3328 2828 
Q 3544 3216 3844 3400 
Q 4144 3584 4550 3584 
Q 5097 3584 5394 3201 
Q 5691 2819 5691 2113 
L 5691 0 
L 5113 0 
L 5113 2094 
Q 5113 2597 4934 2840 
Q 4756 3084 4391 3084 
Q 3944 3084 3684 2787 
Q 3425 2491 3425 1978 
L 3425 0 
L 2847 0 
L 2847 2094 
Q 2847 2600 2669 2842 
Q 2491 3084 2119 3084 
Q 1678 3084 1418 2786 
Q 1159 2488 1159 1978 
L 1159 0 
L 581 0 
L 581 3500 
L 1159 3500 
L 1159 2956 
Q 1356 3278 1631 3431 
Q 1906 3584 2284 3584 
Q 2666 3584 2933 3390 
Q 3200 3197 3328 2828 
z
" transform="scale(0.015625)"/>
      <path id="DejaVuSans-68" d="M 3513 2113 
L 3513 0 
L 2938 0 
L 2938 2094 
Q 2938 2591 2744 2837 
Q 2550 3084 2163 3084 
Q 1697 3084 1428 2787 
Q 1159 2491 1159 1978 
L 1159 0 
L 581 0 
L 581 4863 
L 1159 4863 
L 1159 2956 
Q 1366 3272 1645 3428 
Q 1925 3584 2291 3584 
Q 2894 3584 3203 3211 
Q 3513 2838 3513 2113 
z
" transform="scale(0.015625)"/>
      <path id="DejaVuSans-73" d="M 2834 3397 
L 2834 2853 
Q 2591 2978 2328 3040 
Q 2066 3103 1784 3103 
Q 1356 3103 1142 2972 
Q 928 2841 928 2578 
Q 928 2378 1081 2264 
Q 1234 2150 1697 2047 
L 1894 2003 
Q 2506 1872 2764 1633 
Q 3022 1394 3022 966 
Q 3022 478 2636 193 
Q 2250 -91 1575 -91 
Q 1294 -91 989 -36 
Q 684 19 347 128 
L 347 722 
Q 666 556 975 473 
Q 1284 391 1588 391 
Q 1994 391 2212 530 
Q 2431 669 2431 922 
Q 2431 1156 2273 1281 
Q 2116 1406 1581 1522 
L 1381 1569 
Q 847 1681 609 1914 
Q 372 2147 372 2553 
Q 372 3047 722 3315 
Q 1072 3584 1716 3584 
Q 2034 3584 2315 3537 
Q 2597 3491 2834 3397 
z
" transform="scale(0.015625)"/>
      <path id="DejaVuSans-63" d="M 3122 3366 
L 3122 2828 
Q 2878 2963 2633 3030 
Q 2388 3097 2138 3097 
Q 1578 3097 1268 2742 
Q 959 2388 959 1747 
Q 959 1106 1268 751 
Q 1578 397 2138 397 
Q 2388 397 2633 464 
Q 2878 531 3122 666 
L 3122 134 
Q 2881 22 2623 -34 
Q 2366 -91 2075 -91 
Q 1284 -91 818 406 
Q 353 903 353 1747 
Q 353 2603 823 3093 
Q 1294 3584 2113 3584 
Q 2378 3584 2631 3529 
Q 2884 3475 3122 3366 
z
" transform="scale(0.015625)"/>
     </defs>
     <use xlink:href="#DejaVuSans-6d"/>
     <use xlink:href="#DejaVuSans-65" transform="translate(97.412109 0)"/>
     <use xlink:href="#DejaVuSans-74" transform="translate(158.935547 0)"/>
     <use xlink:href="#DejaVuSans-68" transform="translate(198.144531 0)"/>
     <use xlink:href="#DejaVuSans-6f" transform="translate(261.523438 0)"/>
     <use xlink:href="#DejaVuSans-64" transform="translate(322.705078 0)"/>
     <use xlink:href="#DejaVuSans-20" transform="translate(386.181641 0)"/>
     <use xlink:href="#DejaVuSans-73" transform="translate(417.96875 0)"/>
     <use xlink:href="#DejaVuSans-65" transform="translate(470.068359 0)"/>
     <use xlink:href="#DejaVuSans-6c" transform="translate(531.591797 0)"/>
     <use xlink:href="#DejaVuSans-65" transform="translate(559.375 0)"/>
     <use xlink:href="#DejaVuSans-63" transform="translate(620.898438 0)"/>
     <use xlink:href="#DejaVuSans-74" transform="translate(675.878906 0)"/>
     <use xlink:href="#DejaVuSans-69" transform="translate(715.087891 0)"/>
     <use xlink:href="#DejaVuSans-6f" transform="translate(742.871094 0)"/>
     <use xlink:href="#DejaVuSans-6e" transform="translate(804.052734 0)"/>
    </g>
   </g>
   <g id="text_7">
    <!-- execution correctness -->
    <g style="fill: #222222" transform="translate(70.274168 154.206412) scale(0.105 -0.105)">
     <defs>
      <path id="DejaVuSans-75" d="M 544 1381 
L 544 3500 
L 1119 3500 
L 1119 1403 
Q 1119 906 1312 657 
Q 1506 409 1894 409 
Q 2359 409 2629 706 
Q 2900 1003 2900 1516 
L 2900 3500 
L 3475 3500 
L 3475 0 
L 2900 0 
L 2900 538 
Q 2691 219 2414 64 
Q 2138 -91 1772 -91 
Q 1169 -91 856 284 
Q 544 659 544 1381 
z
M 1991 3584 
L 1991 3584 
z
" transform="scale(0.015625)"/>
     </defs>
     <use xlink:href="#DejaVuSans-65"/>
     <use xlink:href="#DejaVuSans-78" transform="translate(59.773438 0)"/>
     <use xlink:href="#DejaVuSans-65" transform="translate(115.828125 0)"/>
     <use xlink:href="#DejaVuSans-63" transform="translate(177.351562 0)"/>
     <use xlink:href="#DejaVuSans-75" transform="translate(232.332031 0)"/>
     <use xlink:href="#DejaVuSans-74" transform="translate(295.710938 0)"/>
     <use xlink:href="#DejaVuSans-69" transform="translate(334.919922 0)"/>
     <use xlink:href="#DejaVuSans-6f" transform="translate(362.703125 0)"/>
     <use xlink:href="#DejaVuSans-6e" transform="translate(423.884766 0)"/>
     <use xlink:href="#DejaVuSans-20" transform="translate(487.263672 0)"/>
     <use xlink:href="#DejaVuSans-63" transform="translate(519.050781 0)"/>
     <use xlink:href="#DejaVuSans-6f" transform="translate(574.03125 0)"/>
     <use xlink:href="#DejaVuSans-72" transform="translate(635.212891 0)"/>
     <use xlink:href="#DejaVuSans-72" transform="translate(674.576172 0)"/>
     <use xlink:href="#DejaVuSans-65" transform="translate(713.439453 0)"/>
     <use xlink:href="#DejaVuSans-63" transform="translate(774.962891 0)"/>
     <use xlink:href="#DejaVuSans-74" transform="translate(829.943359 0)"/>
     <use xlink:href="#DejaVuSans-6e" transform="translate(869.152344 0)"/>
     <use xlink:href="#DejaVuSans-65" transform="translate(932.53125 0)"/>
     <use xlink:href="#DejaVuSans-73" transform="translate(994.054688 0)"/>
     <use xlink:href="#DejaVuSans-73" transform="translate(1046.154297 0)"/>
    </g>
   </g>
   <g id="text_8">
    <!-- answer fidelity -->
    <g style="fill: #222222" transform="translate(89.350535 439.108275) scale(0.105 -0.105)">
     <defs>
      <path id="DejaVuSans-77" d="M 269 3500 
L 844 3500 
L 1563 769 
L 2278 3500 
L 2956 3500 
L 3675 769 
L 4391 3500 
L 4966 3500 
L 4050 0 
L 3372 0 
L 2619 2869 
L 1863 0 
L 1184 0 
L 269 3500 
z
" transform="scale(0.015625)"/>
      <path id="DejaVuSans-66" d="M 2375 4863 
L 2375 4384 
L 1825 4384 
Q 1516 4384 1395 4259 
Q 1275 4134 1275 3809 
L 1275 3500 
L 2222 3500 
L 2222 3053 
L 1275 3053 
L 1275 0 
L 697 0 
L 697 3053 
L 147 3053 
L 147 3500 
L 697 3500 
L 697 3744 
Q 697 4328 969 4595 
Q 1241 4863 1831 4863 
L 2375 4863 
z
" transform="scale(0.015625)"/>
      <path id="DejaVuSans-79" d="M 2059 -325 
Q 1816 -950 1584 -1140 
Q 1353 -1331 966 -1331 
L 506 -1331 
L 506 -850 
L 844 -850 
Q 1081 -850 1212 -737 
Q 1344 -625 1503 -206 
L 1606 56 
L 191 3500 
L 800 3500 
L 1894 763 
L 2988 3500 
L 3597 3500 
L 2059 -325 
z
" transform="scale(0.015625)"/>
     </defs>
     <use xlink:href="#DejaVuSans-61"/>
     <use xlink:href="#DejaVuSans-6e" transform="translate(61.279297 0)"/>
     <use xlink:href="#DejaVuSans-73" transform="translate(124.658203 0)"/>
     <use xlink:href="#DejaVuSans-77" transform="translate(176.757812 0)"/>
     <use xlink:href="#DejaVuSans-65" transform="translate(258.544922 0)"/>
     <use xlink:href="#DejaVuSans-72" transform="translate(320.068359 0)"/>
     <use xlink:href="#DejaVuSans-20" transform="translate(361.181641 0)"/>
     <use xlink:href="#DejaVuSans-66" transform="translate(392.96875 0)"/>
     <use xlink:href="#DejaVuSans-69" transform="translate(428.173828 0)"/>
     <use xlink:href="#DejaVuSans-64" transform="translate(455.957031 0)"/>
     <use xlink:href="#DejaVuSans-65" transform="translate(519.433594 0)"/>
     <use xlink:href="#DejaVuSans-6c" transform="translate(580.957031 0)"/>
     <use xlink:href="#DejaVuSans-69" transform="translate(608.740234 0)"/>
     <use xlink:href="#DejaVuSans-74" transform="translate(636.523438 0)"/>
     <use xlink:href="#DejaVuSans-79" transform="translate(675.732422 0)"/>
    </g>
   </g>
   <g id="text_9">
    <!-- iteration pattern -->
    <g style="fill: #222222" transform="translate(355.753113 527.147793) scale(0.105 -0.105)">
     <use xlink:href="#DejaVuSans-69"/>
     <use xlink:href="#DejaVuSans-74" transform="translate(27.783203 0)"/>
     <use xlink:href="#DejaVuSans-65" transform="translate(66.992188 0)"/>
     <use xlink:href="#DejaVuSans-72" transform="translate(128.515625 0)"/>
     <use xlink:href="#DejaVuSans-61" transform="translate(169.628906 0)"/>
     <use xlink:href="#DejaVuSans-74" transform="translate(230.908203 0)"/>
     <use xlink:href="#DejaVuSans-69" transform="translate(270.117188 0)"/>
     <use xlink:href="#DejaVuSans-6f" transform="translate(297.900391 0)"/>
     <use xlink:href="#DejaVuSans-6e" transform="translate(359.082031 0)"/>
     <use xlink:href="#DejaVuSans-20" transform="translate(422.460938 0)"/>
     <use xlink:href="#DejaVuSans-70" transform="translate(454.248047 0)"/>
     <use xlink:href="#DejaVuSans-61" transform="translate(517.724609 0)"/>
     <use xlink:href="#DejaVuSans-74" transform="translate(579.003906 0)"/>
     <use xlink:href="#DejaVuSans-74" transform="translate(618.212891 0)"/>
     <use xlink:href="#DejaVuSans-65" transform="translate(657.421875 0)"/>
     <use xlink:href="#DejaVuSans-72" transform="translate(718.945312 0)"/>
     <use xlink:href="#DejaVuSans-6e" transform="translate(758.308594 0)"/>
    </g>
   </g>
   <g id="text_10">
    <!-- BixBench-Verified-50 — process quality by harness outcome -->
    <g transform="translate(158.354609 37.122406) scale(0.11 -0.11)">
     <defs>
      <path id="DejaVuSans-42" d="M 1259 2228 
L 1259 519 
L 2272 519 
Q 2781 519 3026 730 
Q 3272 941 3272 1375 
Q 3272 1813 3026 2020 
Q 2781 2228 2272 2228 
L 1259 2228 
z
M 1259 4147 
L 1259 2741 
L 2194 2741 
Q 2656 2741 2882 2914 
Q 3109 3088 3109 3444 
Q 3109 3797 2882 3972 
Q 2656 4147 2194 4147 
L 1259 4147 
z
M 628 4666 
L 2241 4666 
Q 2963 4666 3353 4366 
Q 3744 4066 3744 3513 
Q 3744 3084 3544 2831 
Q 3344 2578 2956 2516 
Q 3422 2416 3680 2098 
Q 3938 1781 3938 1306 
Q 3938 681 3513 340 
Q 3088 0 2303 0 
L 628 0 
L 628 4666 
z
" transform="scale(0.015625)"/>
      <path id="DejaVuSans-2d" d="M 313 2009 
L 1997 2009 
L 1997 1497 
L 313 1497 
L 313 2009 
z
" transform="scale(0.015625)"/>
      <path id="DejaVuSans-56" d="M 1831 0 
L 50 4666 
L 709 4666 
L 2188 738 
L 3669 4666 
L 4325 4666 
L 2547 0 
L 1831 0 
z
" transform="scale(0.015625)"/>
      <path id="DejaVuSans-35" d="M 691 4666 
L 3169 4666 
L 3169 4134 
L 1269 4134 
L 1269 2991 
Q 1406 3038 1543 3061 
Q 1681 3084 1819 3084 
Q 2600 3084 3056 2656 
Q 3513 2228 3513 1497 
Q 3513 744 3044 326 
Q 2575 -91 1722 -91 
Q 1428 -91 1123 -41 
Q 819 9 494 109 
L 494 744 
Q 775 591 1075 516 
Q 1375 441 1709 441 
Q 2250 441 2565 725 
Q 2881 1009 2881 1497 
Q 2881 1984 2565 2268 
Q 2250 2553 1709 2553 
Q 1456 2553 1204 2497 
Q 953 2441 691 2322 
L 691 4666 
z
" transform="scale(0.015625)"/>
      <path id="DejaVuSans-2014" d="M 313 1978 
L 6088 1978 
L 6088 1528 
L 313 1528 
L 313 1978 
z
" transform="scale(0.015625)"/>
      <path id="DejaVuSans-71" d="M 947 1747 
Q 947 1113 1208 752 
Q 1469 391 1925 391 
Q 2381 391 2643 752 
Q 2906 1113 2906 1747 
Q 2906 2381 2643 2742 
Q 2381 3103 1925 3103 
Q 1469 3103 1208 2742 
Q 947 2381 947 1747 
z
M 2906 525 
Q 2725 213 2448 61 
Q 2172 -91 1784 -91 
Q 1150 -91 751 415 
Q 353 922 353 1747 
Q 353 2572 751 3078 
Q 1150 3584 1784 3584 
Q 2172 3584 2448 3432 
Q 2725 3281 2906 2969 
L 2906 3500 
L 3481 3500 
L 3481 -1331 
L 2906 -1331 
L 2906 525 
z
" transform="scale(0.015625)"/>
      <path id="DejaVuSans-62" d="M 3116 1747 
Q 3116 2381 2855 2742 
Q 2594 3103 2138 3103 
Q 1681 3103 1420 2742 
Q 1159 2381 1159 1747 
Q 1159 1113 1420 752 
Q 1681 391 2138 391 
Q 2594 391 2855 752 
Q 3116 1113 3116 1747 
z
M 1159 2969 
Q 1341 3281 1617 3432 
Q 1894 3584 2278 3584 
Q 2916 3584 3314 3078 
Q 3713 2572 3713 1747 
Q 3713 922 3314 415 
Q 2916 -91 2278 -91 
Q 1894 -91 1617 61 
Q 1341 213 1159 525 
L 1159 0 
L 581 0 
L 581 4863 
L 1159 4863 
L 1159 2969 
z
" transform="scale(0.015625)"/>
     </defs>
     <use xlink:href="#DejaVuSans-42"/>
     <use xlink:href="#DejaVuSans-69" transform="translate(68.603516 0)"/>
     <use xlink:href="#DejaVuSans-78" transform="translate(96.386719 0)"/>
     <use xlink:href="#DejaVuSans-42" transform="translate(155.566406 0)"/>
     <use xlink:href="#DejaVuSans-65" transform="translate(224.169922 0)"/>
     <use xlink:href="#DejaVuSans-6e" transform="translate(285.693359 0)"/>
     <use xlink:href="#DejaVuSans-63" transform="translate(349.072266 0)"/>
     <use xlink:href="#DejaVuSans-68" transform="translate(404.052734 0)"/>
     <use xlink:href="#DejaVuSans-2d" transform="translate(467.431641 0)"/>
     <use xlink:href="#DejaVuSans-56" transform="translate(497.640625 0)"/>
     <use xlink:href="#DejaVuSans-65" transform="translate(558.298828 0)"/>
     <use xlink:href="#DejaVuSans-72" transform="translate(619.822266 0)"/>
     <use xlink:href="#DejaVuSans-69" transform="translate(660.935547 0)"/>
     <use xlink:href="#DejaVuSans-66" transform="translate(688.71875 0)"/>
     <use xlink:href="#DejaVuSans-69" transform="translate(723.923828 0)"/>
     <use xlink:href="#DejaVuSans-65" transform="translate(751.707031 0)"/>
     <use xlink:href="#DejaVuSans-64" transform="translate(813.230469 0)"/>
     <use xlink:href="#DejaVuSans-2d" transform="translate(876.707031 0)"/>
     <use xlink:href="#DejaVuSans-35" transform="translate(912.791016 0)"/>
     <use xlink:href="#DejaVuSans-30" transform="translate(976.414062 0)"/>
     <use xlink:href="#DejaVuSans-20" transform="translate(1040.037109 0)"/>
     <use xlink:href="#DejaVuSans-2014" transform="translate(1071.824219 0)"/>
     <use xlink:href="#DejaVuSans-20" transform="translate(1171.824219 0)"/>
     <use xlink:href="#DejaVuSans-70" transform="translate(1203.611328 0)"/>
     <use xlink:href="#DejaVuSans-72" transform="translate(1267.087891 0)"/>
     <use xlink:href="#DejaVuSans-6f" transform="translate(1305.951172 0)"/>
     <use xlink:href="#DejaVuSans-63" transform="translate(1367.132812 0)"/>
     <use xlink:href="#DejaVuSans-65" transform="translate(1422.113281 0)"/>
     <use xlink:href="#DejaVuSans-73" transform="translate(1483.636719 0)"/>
     <use xlink:href="#DejaVuSans-73" transform="translate(1535.736328 0)"/>
     <use xlink:href="#DejaVuSans-20" transform="translate(1587.835938 0)"/>
     <use xlink:href="#DejaVuSans-71" transform="translate(1619.623047 0)"/>
     <use xlink:href="#DejaVuSans-75" transform="translate(1683.099609 0)"/>
     <use xlink:href="#DejaVuSans-61" transform="translate(1746.478516 0)"/>
     <use xlink:href="#DejaVuSans-6c" transform="translate(1807.757812 0)"/>
     <use xlink:href="#DejaVuSans-69" transform="translate(1835.541016 0)"/>
     <use xlink:href="#DejaVuSans-74" transform="translate(1863.324219 0)"/>
     <use xlink:href="#DejaVuSans-79" transform="translate(1902.533203 0)"/>
     <use xlink:href="#DejaVuSans-20" transform="translate(1961.712891 0)"/>
     <use xlink:href="#DejaVuSans-62" transform="translate(1993.5 0)"/>
     <use xlink:href="#DejaVuSans-79" transform="translate(2056.976562 0)"/>
     <use xlink:href="#DejaVuSans-20" transform="translate(2116.15625 0)"/>
     <use xlink:href="#DejaVuSans-68" transform="translate(2147.943359 0)"/>
     <use xlink:href="#DejaVuSans-61" transform="translate(2211.322266 0)"/>
     <use xlink:href="#DejaVuSans-72" transform="translate(2272.601562 0)"/>
     <use xlink:href="#DejaVuSans-6e" transform="translate(2311.964844 0)"/>
     <use xlink:href="#DejaVuSans-65" transform="translate(2375.34375 0)"/>
     <use xlink:href="#DejaVuSans-73" transform="translate(2436.867188 0)"/>
     <use xlink:href="#DejaVuSans-73" transform="translate(2488.966797 0)"/>
     <use xlink:href="#DejaVuSans-20" transform="translate(2541.066406 0)"/>
     <use xlink:href="#DejaVuSans-6f" transform="translate(2572.853516 0)"/>
     <use xlink:href="#DejaVuSans-75" transform="translate(2634.035156 0)"/>
     <use xlink:href="#DejaVuSans-74" transform="translate(2697.414062 0)"/>
     <use xlink:href="#DejaVuSans-63" transform="translate(2736.623047 0)"/>
     <use xlink:href="#DejaVuSans-6f" transform="translate(2791.603516 0)"/>
     <use xlink:href="#DejaVuSans-6d" transform="translate(2852.785156 0)"/>
     <use xlink:href="#DejaVuSans-65" transform="translate(2950.197266 0)"/>
    </g>
    <!-- 5 dims scored by DeepSeek-v4-pro on best trajectory per question -->
    <g transform="translate(140.590469 49.44) scale(0.11 -0.11)">
     <defs>
      <path id="DejaVuSans-44" d="M 1259 4147 
L 1259 519 
L 2022 519 
Q 2988 519 3436 956 
Q 3884 1394 3884 2338 
Q 3884 3275 3436 3711 
Q 2988 4147 2022 4147 
L 1259 4147 
z
M 628 4666 
L 1925 4666 
Q 3281 4666 3915 4102 
Q 4550 3538 4550 2338 
Q 4550 1131 3912 565 
Q 3275 0 1925 0 
L 628 0 
L 628 4666 
z
" transform="scale(0.015625)"/>
      <path id="DejaVuSans-53" d="M 3425 4513 
L 3425 3897 
Q 3066 4069 2747 4153 
Q 2428 4238 2131 4238 
Q 1616 4238 1336 4038 
Q 1056 3838 1056 3469 
Q 1056 3159 1242 3001 
Q 1428 2844 1947 2747 
L 2328 2669 
Q 3034 2534 3370 2195 
Q 3706 1856 3706 1288 
Q 3706 609 3251 259 
Q 2797 -91 1919 -91 
Q 1588 -91 1214 -16 
Q 841 59 441 206 
L 441 856 
Q 825 641 1194 531 
Q 1563 422 1919 422 
Q 2459 422 2753 634 
Q 3047 847 3047 1241 
Q 3047 1584 2836 1778 
Q 2625 1972 2144 2069 
L 1759 2144 
Q 1053 2284 737 2584 
Q 422 2884 422 3419 
Q 422 4038 858 4394 
Q 1294 4750 2059 4750 
Q 2388 4750 2728 4690 
Q 3069 4631 3425 4513 
z
" transform="scale(0.015625)"/>
      <path id="DejaVuSans-6b" d="M 581 4863 
L 1159 4863 
L 1159 1991 
L 2875 3500 
L 3609 3500 
L 1753 1863 
L 3688 0 
L 2938 0 
L 1159 1709 
L 1159 0 
L 581 0 
L 581 4863 
z
" transform="scale(0.015625)"/>
      <path id="DejaVuSans-76" d="M 191 3500 
L 800 3500 
L 1894 563 
L 2988 3500 
L 3597 3500 
L 2284 0 
L 1503 0 
L 191 3500 
z
" transform="scale(0.015625)"/>
      <path id="DejaVuSans-34" d="M 2419 4116 
L 825 1625 
L 2419 1625 
L 2419 4116 
z
M 2253 4666 
L 3047 4666 
L 3047 1625 
L 3713 1625 
L 3713 1100 
L 3047 1100 
L 3047 0 
L 2419 0 
L 2419 1100 
L 313 1100 
L 313 1709 
L 2253 4666 
z
" transform="scale(0.015625)"/>
      <path id="DejaVuSans-6a" d="M 603 3500 
L 1178 3500 
L 1178 -63 
Q 1178 -731 923 -1031 
Q 669 -1331 103 -1331 
L -116 -1331 
L -116 -844 
L 38 -844 
Q 366 -844 484 -692 
Q 603 -541 603 -63 
L 603 3500 
z
M 603 4863 
L 1178 4863 
L 1178 4134 
L 603 4134 
L 603 4863 
z
" transform="scale(0.015625)"/>
     </defs>
     <use xlink:href="#DejaVuSans-35"/>
     <use xlink:href="#DejaVuSans-20" transform="translate(63.623047 0)"/>
     <use xlink:href="#DejaVuSans-64" transform="translate(95.410156 0)"/>
     <use xlink:href="#DejaVuSans-69" transform="translate(158.886719 0)"/>
     <use xlink:href="#DejaVuSans-6d" transform="translate(186.669922 0)"/>
     <use xlink:href="#DejaVuSans-73" transform="translate(284.082031 0)"/>
     <use xlink:href="#DejaVuSans-20" transform="translate(336.181641 0)"/>
     <use xlink:href="#DejaVuSans-73" transform="translate(367.96875 0)"/>
     <use xlink:href="#DejaVuSans-63" transform="translate(420.068359 0)"/>
     <use xlink:href="#DejaVuSans-6f" transform="translate(475.048828 0)"/>
     <use xlink:href="#DejaVuSans-72" transform="translate(536.230469 0)"/>
     <use xlink:href="#DejaVuSans-65" transform="translate(575.09375 0)"/>
     <use xlink:href="#DejaVuSans-64" transform="translate(636.617188 0)"/>
     <use xlink:href="#DejaVuSans-20" transform="translate(700.09375 0)"/>
     <use xlink:href="#DejaVuSans-62" transform="translate(731.880859 0)"/>
     <use xlink:href="#DejaVuSans-79" transform="translate(795.357422 0)"/>
     <use xlink:href="#DejaVuSans-20" transform="translate(854.537109 0)"/>
     <use xlink:href="#DejaVuSans-44" transform="translate(886.324219 0)"/>
     <use xlink:href="#DejaVuSans-65" transform="translate(963.326172 0)"/>
     <use xlink:href="#DejaVuSans-65" transform="translate(1024.849609 0)"/>
     <use xlink:href="#DejaVuSans-70" transform="translate(1086.373047 0)"/>
     <use xlink:href="#DejaVuSans-53" transform="translate(1149.849609 0)"/>
     <use xlink:href="#DejaVuSans-65" transform="translate(1213.326172 0)"/>
     <use xlink:href="#DejaVuSans-65" transform="translate(1274.849609 0)"/>
     <use xlink:href="#DejaVuSans-6b" transform="translate(1336.373047 0)"/>
     <use xlink:href="#DejaVuSans-2d" transform="translate(1394.283203 0)"/>
     <use xlink:href="#DejaVuSans-76" transform="translate(1427.742188 0)"/>
     <use xlink:href="#DejaVuSans-34" transform="translate(1486.921875 0)"/>
     <use xlink:href="#DejaVuSans-2d" transform="translate(1550.544922 0)"/>
     <use xlink:href="#DejaVuSans-70" transform="translate(1586.628906 0)"/>
     <use xlink:href="#DejaVuSans-72" transform="translate(1650.105469 0)"/>
     <use xlink:href="#DejaVuSans-6f" transform="translate(1688.96875 0)"/>
     <use xlink:href="#DejaVuSans-20" transform="translate(1750.150391 0)"/>
     <use xlink:href="#DejaVuSans-6f" transform="translate(1781.9375 0)"/>
     <use xlink:href="#DejaVuSans-6e" transform="translate(1843.119141 0)"/>
     <use xlink:href="#DejaVuSans-20" transform="translate(1906.498047 0)"/>
     <use xlink:href="#DejaVuSans-62" transform="translate(1938.285156 0)"/>
     <use xlink:href="#DejaVuSans-65" transform="translate(2001.761719 0)"/>
     <use xlink:href="#DejaVuSans-73" transform="translate(2063.285156 0)"/>
     <use xlink:href="#DejaVuSans-74" transform="translate(2115.384766 0)"/>
     <use xlink:href="#DejaVuSans-20" transform="translate(2154.59375 0)"/>
     <use xlink:href="#DejaVuSans-74" transform="translate(2186.380859 0)"/>
     <use xlink:href="#DejaVuSans-72" transform="translate(2225.589844 0)"/>
     <use xlink:href="#DejaVuSans-61" transform="translate(2266.703125 0)"/>
     <use xlink:href="#DejaVuSans-6a" transform="translate(2327.982422 0)"/>
     <use xlink:href="#DejaVuSans-65" transform="translate(2355.765625 0)"/>
     <use xlink:href="#DejaVuSans-63" transform="translate(2417.289062 0)"/>
     <use xlink:href="#DejaVuSans-74" transform="translate(2472.269531 0)"/>
     <use xlink:href="#DejaVuSans-6f" transform="translate(2511.478516 0)"/>
     <use xlink:href="#DejaVuSans-72" transform="translate(2572.660156 0)"/>
     <use xlink:href="#DejaVuSans-79" transform="translate(2613.773438 0)"/>
     <use xlink:href="#DejaVuSans-20" transform="translate(2672.953125 0)"/>
     <use xlink:href="#DejaVuSans-70" transform="translate(2704.740234 0)"/>
     <use xlink:href="#DejaVuSans-65" transform="translate(2768.216797 0)"/>
     <use xlink:href="#DejaVuSans-72" transform="translate(2829.740234 0)"/>
     <use xlink:href="#DejaVuSans-20" transform="translate(2870.853516 0)"/>
     <use xlink:href="#DejaVuSans-71" transform="translate(2902.640625 0)"/>
     <use xlink:href="#DejaVuSans-75" transform="translate(2966.117188 0)"/>
     <use xlink:href="#DejaVuSans-65" transform="translate(3029.496094 0)"/>
     <use xlink:href="#DejaVuSans-73" transform="translate(3091.019531 0)"/>
     <use xlink:href="#DejaVuSans-74" transform="translate(3143.119141 0)"/>
     <use xlink:href="#DejaVuSans-69" transform="translate(3182.328125 0)"/>
     <use xlink:href="#DejaVuSans-6f" transform="translate(3210.111328 0)"/>
     <use xlink:href="#DejaVuSans-6e" transform="translate(3271.292969 0)"/>
    </g>
   </g>
   <g id="line2d_10">
    <path d="M 497.1552 293.76 
L 380.231204 120.698148 
L 176.388701 186.514114 
L 160.544912 412.517073 
L 385.52652 483.119157 
L 497.1552 293.76 
" clip-path="url(#pfdaef0b6fc)" style="fill: none; stroke: #1f4fbf; stroke-width: 2.2; stroke-linecap: square"/>
    <defs>
     <path id="m4c0d65b648" d="M 0 3 
C 0.795609 3 1.55874 2.683901 2.12132 2.12132 
C 2.683901 1.55874 3 0.795609 3 0 
C 3 -0.795609 2.683901 -1.55874 2.12132 -2.12132 
C 1.55874 -2.683901 0.795609 -3 0 -3 
C -0.795609 -3 -1.55874 -2.683901 -2.12132 -2.12132 
C -2.683901 -1.55874 -3 -0.795609 -3 0 
C -3 0.795609 -2.683901 1.55874 -2.12132 2.12132 
C -1.55874 2.683901 -0.795609 3 0 3 
z
" style="stroke: #1f4fbf"/>
    </defs>
    <g clip-path="url(#pfdaef0b6fc)">
     <use xlink:href="#m4c0d65b648" x="497.1552" y="293.76" style="fill: #1f4fbf; stroke: #1f4fbf"/>
     <use xlink:href="#m4c0d65b648" x="380.231204" y="120.698148" style="fill: #1f4fbf; stroke: #1f4fbf"/>
     <use xlink:href="#m4c0d65b648" x="176.388701" y="186.514114" style="fill: #1f4fbf; stroke: #1f4fbf"/>
     <use xlink:href="#m4c0d65b648" x="160.544912" y="412.517073" style="fill: #1f4fbf; stroke: #1f4fbf"/>
     <use xlink:href="#m4c0d65b648" x="385.52652" y="483.119157" style="fill: #1f4fbf; stroke: #1f4fbf"/>
     <use xlink:href="#m4c0d65b648" x="497.1552" y="293.76" style="fill: #1f4fbf; stroke: #1f4fbf"/>
    </g>
   </g>
   <g id="line2d_11">
    <path d="M 397.44 293.76 
L 355.771891 195.976173 
L 264.585792 250.593051 
L 151.698797 418.944152 
L 383.004941 475.358535 
L 397.44 293.76 
" clip-path="url(#pfdaef0b6fc)" style="fill: none; stroke: #c13b3b; stroke-width: 2.2; stroke-linecap: square"/>
    <defs>
     <path id="m9270838418" d="M 0 3 
C 0.795609 3 1.55874 2.683901 2.12132 2.12132 
C 2.683901 1.55874 3 0.795609 3 0 
C 3 -0.795609 2.683901 -1.55874 2.12132 -2.12132 
C 1.55874 -2.683901 0.795609 -3 0 -3 
C -0.795609 -3 -1.55874 -2.683901 -2.12132 -2.12132 
C -2.683901 -1.55874 -3 -0.795609 -3 0 
C -3 0.795609 -2.683901 1.55874 -2.12132 2.12132 
C -1.55874 2.683901 -0.795609 3 0 3 
z
" style="stroke: #c13b3b"/>
    </defs>
    <g clip-path="url(#pfdaef0b6fc)">
     <use xlink:href="#m9270838418" x="397.44" y="293.76" style="fill: #c13b3b; stroke: #c13b3b"/>
     <use xlink:href="#m9270838418" x="355.771891" y="195.976173" style="fill: #c13b3b; stroke: #c13b3b"/>
     <use xlink:href="#m9270838418" x="264.585792" y="250.593051" style="fill: #c13b3b; stroke: #c13b3b"/>
     <use xlink:href="#m9270838418" x="151.698797" y="418.944152" style="fill: #c13b3b; stroke: #c13b3b"/>
     <use xlink:href="#m9270838418" x="383.004941" y="475.358535" style="fill: #c13b3b; stroke: #c13b3b"/>
     <use xlink:href="#m9270838418" x="397.44" y="293.76" style="fill: #c13b3b; stroke: #c13b3b"/>
    </g>
   </g>
   <g id="legend_1">
    <g id="patch_6">
     <path d="M 191.571875 551.091688 
L 456.428125 551.091688 
L 456.428125 541.112 
L 191.571875 541.112 
z
" style="fill: #ffffff; opacity: 0.8; stroke: #cccccc; stroke-linejoin: miter"/>
    </g>
    <g id="line2d_12">
     <path d="M 191.571875 545.062 
L 194.071875 545.062 
L 196.571875 545.062 
" style="fill: none; stroke: #1f4fbf; stroke-width: 2.2; stroke-linecap: square"/>
     <g>
      <use xlink:href="#m4c0d65b648" x="194.071875" y="545.062" style="fill: #1f4fbf; stroke: #1f4fbf"/>
     </g>
    </g>
    <g id="text_11">
     <!-- Pass  (n=45, process 96) -->
     <g transform="translate(200.571875 549.012) scale(0.1 -0.1)">
      <defs>
       <path id="DejaVuSans-50" d="M 1259 4147 
L 1259 2394 
L 2053 2394 
Q 2494 2394 2734 2622 
Q 2975 2850 2975 3272 
Q 2975 3691 2734 3919 
Q 2494 4147 2053 4147 
L 1259 4147 
z
M 628 4666 
L 2053 4666 
Q 2838 4666 3239 4311 
Q 3641 3956 3641 3272 
Q 3641 2581 3239 2228 
Q 2838 1875 2053 1875 
L 1259 1875 
L 1259 0 
L 628 0 
L 628 4666 
z
" transform="scale(0.015625)"/>
       <path id="DejaVuSans-28" d="M 1984 4856 
Q 1566 4138 1362 3434 
Q 1159 2731 1159 2009 
Q 1159 1288 1364 580 
Q 1569 -128 1984 -844 
L 1484 -844 
Q 1016 -109 783 600 
Q 550 1309 550 2009 
Q 550 2706 781 3412 
Q 1013 4119 1484 4856 
L 1984 4856 
z
" transform="scale(0.015625)"/>
       <path id="DejaVuSans-3d" d="M 678 2906 
L 4684 2906 
L 4684 2381 
L 678 2381 
L 678 2906 
z
M 678 1631 
L 4684 1631 
L 4684 1100 
L 678 1100 
L 678 1631 
z
" transform="scale(0.015625)"/>
       <path id="DejaVuSans-2c" d="M 750 794 
L 1409 794 
L 1409 256 
L 897 -744 
L 494 -744 
L 750 256 
L 750 794 
z
" transform="scale(0.015625)"/>
       <path id="DejaVuSans-36" d="M 2113 2584 
Q 1688 2584 1439 2293 
Q 1191 2003 1191 1497 
Q 1191 994 1439 701 
Q 1688 409 2113 409 
Q 2538 409 2786 701 
Q 3034 994 3034 1497 
Q 3034 2003 2786 2293 
Q 2538 2584 2113 2584 
z
M 3366 4563 
L 3366 3988 
Q 3128 4100 2886 4159 
Q 2644 4219 2406 4219 
Q 1781 4219 1451 3797 
Q 1122 3375 1075 2522 
Q 1259 2794 1537 2939 
Q 1816 3084 2150 3084 
Q 2853 3084 3261 2657 
Q 3669 2231 3669 1497 
Q 3669 778 3244 343 
Q 2819 -91 2113 -91 
Q 1303 -91 875 529 
Q 447 1150 447 2328 
Q 447 3434 972 4092 
Q 1497 4750 2381 4750 
Q 2619 4750 2861 4703 
Q 3103 4656 3366 4563 
z
" transform="scale(0.015625)"/>
       <path id="DejaVuSans-29" d="M 513 4856 
L 1013 4856 
Q 1481 4119 1714 3412 
Q 1947 2706 1947 2009 
Q 1947 1309 1714 600 
Q 1481 -109 1013 -844 
L 513 -844 
Q 928 -128 1133 580 
Q 1338 1288 1338 2009 
Q 1338 2731 1133 3434 
Q 928 4138 513 4856 
z
" transform="scale(0.015625)"/>
      </defs>
      <use xlink:href="#DejaVuSans-50"/>
      <use xlink:href="#DejaVuSans-61" transform="translate(55.802734 0)"/>
      <use xlink:href="#DejaVuSans-73" transform="translate(117.082031 0)"/>
      <use xlink:href="#DejaVuSans-73" transform="translate(169.181641 0)"/>
      <use xlink:href="#DejaVuSans-20" transform="translate(221.28125 0)"/>
      <use xlink:href="#DejaVuSans-20" transform="translate(253.068359 0)"/>
      <use xlink:href="#DejaVuSans-28" transform="translate(284.855469 0)"/>
      <use xlink:href="#DejaVuSans-6e" transform="translate(323.869141 0)"/>
      <use xlink:href="#DejaVuSans-3d" transform="translate(387.248047 0)"/>
      <use xlink:href="#DejaVuSans-34" transform="translate(471.037109 0)"/>
      <use xlink:href="#DejaVuSans-35" transform="translate(534.660156 0)"/>
      <use xlink:href="#DejaVuSans-2c" transform="translate(598.283203 0)"/>
      <use xlink:href="#DejaVuSans-20" transform="translate(630.070312 0)"/>
      <use xlink:href="#DejaVuSans-70" transform="translate(661.857422 0)"/>
      <use xlink:href="#DejaVuSans-72" transform="translate(725.333984 0)"/>
      <use xlink:href="#DejaVuSans-6f" transform="translate(764.197266 0)"/>
      <use xlink:href="#DejaVuSans-63" transform="translate(825.378906 0)"/>
      <use xlink:href="#DejaVuSans-65" transform="translate(880.359375 0)"/>
      <use xlink:href="#DejaVuSans-73" transform="translate(941.882812 0)"/>
      <use xlink:href="#DejaVuSans-73" transform="translate(993.982422 0)"/>
      <use xlink:href="#DejaVuSans-20" transform="translate(1046.082031 0)"/>
      <use xlink:href="#DejaVuSans-39" transform="translate(1077.869141 0)"/>
      <use xlink:href="#DejaVuSans-36" transform="translate(1141.492188 0)"/>
      <use xlink:href="#DejaVuSans-29" transform="translate(1205.115234 0)"/>
     </g>
    </g>
    <g id="line2d_13">
     <path d="M 334.982813 545.062 
L 337.482813 545.062 
L 339.982813 545.062 
" style="fill: none; stroke: #c13b3b; stroke-width: 2.2; stroke-linecap: square"/>
     <g>
      <use xlink:href="#m9270838418" x="337.482813" y="545.062" style="fill: #c13b3b; stroke: #c13b3b"/>
     </g>
    </g>
    <g id="text_12">
     <!-- Fail  (n=5, process 88) -->
     <g transform="translate(343.982813 549.012) scale(0.1 -0.1)">
      <defs>
       <path id="DejaVuSans-46" d="M 628 4666 
L 3309 4666 
L 3309 4134 
L 1259 4134 
L 1259 2759 
L 3109 2759 
L 3109 2228 
L 1259 2228 
L 1259 0 
L 628 0 
L 628 4666 
z
" transform="scale(0.015625)"/>
      </defs>
      <use xlink:href="#DejaVuSans-46"/>
      <use xlink:href="#DejaVuSans-61" transform="translate(48.394531 0)"/>
      <use xlink:href="#DejaVuSans-69" transform="translate(109.673828 0)"/>
      <use xlink:href="#DejaVuSans-6c" transform="translate(137.457031 0)"/>
      <use xlink:href="#DejaVuSans-20" transform="translate(165.240234 0)"/>
      <use xlink:href="#DejaVuSans-20" transform="translate(197.027344 0)"/>
      <use xlink:href="#DejaVuSans-28" transform="translate(228.814453 0)"/>
      <use xlink:href="#DejaVuSans-6e" transform="translate(267.828125 0)"/>
      <use xlink:href="#DejaVuSans-3d" transform="translate(331.207031 0)"/>
      <use xlink:href="#DejaVuSans-35" transform="translate(414.996094 0)"/>
      <use xlink:href="#DejaVuSans-2c" transform="translate(478.619141 0)"/>
      <use xlink:href="#DejaVuSans-20" transform="translate(510.40625 0)"/>
      <use xlink:href="#DejaVuSans-70" transform="translate(542.193359 0)"/>
      <use xlink:href="#DejaVuSans-72" transform="translate(605.669922 0)"/>
      <use xlink:href="#DejaVuSans-6f" transform="translate(644.533203 0)"/>
      <use xlink:href="#DejaVuSans-63" transform="translate(705.714844 0)"/>
      <use xlink:href="#DejaVuSans-65" transform="translate(760.695312 0)"/>
      <use xlink:href="#DejaVuSans-73" transform="translate(822.21875 0)"/>
      <use xlink:href="#DejaVuSans-73" transform="translate(874.318359 0)"/>
      <use xlink:href="#DejaVuSans-20" transform="translate(926.417969 0)"/>
      <use xlink:href="#DejaVuSans-38" transform="translate(958.205078 0)"/>
      <use xlink:href="#DejaVuSans-38" transform="translate(1021.828125 0)"/>
      <use xlink:href="#DejaVuSans-29" transform="translate(1085.451172 0)"/>
     </g>
    </g>
   </g>
  </g>
 </g>
 <defs>
  <clipPath id="pfdaef0b6fc">
   <path d="M 544.32 293.76 
C 544.32 264.827843 538.620996 236.177014 527.549139 209.447186 
C 516.477281 182.717358 500.247891 158.428359 479.789766 137.970234 
C 459.331641 117.512109 435.042642 101.282719 408.312814 90.210861 
C 381.582986 79.139004 352.932157 73.44 324 73.44 
C 295.067843 73.44 266.417014 79.139004 239.687186 90.210861 
C 212.957358 101.282719 188.668359 117.512109 168.210234 137.970234 
C 147.752109 158.428359 131.522719 182.717358 120.450861 209.447186 
C 109.379004 236.177014 103.68 264.827843 103.68 293.76 
C 103.68 322.692157 109.379004 351.342986 120.450861 378.072814 
C 131.522719 404.802642 147.752109 429.091641 168.210234 449.549766 
C 188.668359 470.007891 212.957358 486.237281 239.687186 497.309139 
C 266.417014 508.380996 295.067843 514.08 324 514.08 
C 352.932157 514.08 381.582986 508.380996 408.312814 497.309139 
C 435.042642 486.237281 459.331641 470.007891 479.789766 449.549766 
C 500.247891 429.091641 516.477281 404.802642 527.549139 378.072814 
C 538.620996 351.342986 544.32 322.692157 544.32 293.76 
M 324 293.76 
C 324 293.76 324 293.76 324 293.76 
C 324 293.76 324 293.76 324 293.76 
C 324 293.76 324 293.76 324 293.76 
C 324 293.76 324 293.76 324 293.76 
C 324 293.76 324 293.76 324 293.76 
C 324 293.76 324 293.76 324 293.76 
C 324 293.76 324 293.76 324 293.76 
C 324 293.76 324 293.76 324 293.76 
C 324 293.76 324 293.76 324 293.76 
C 324 293.76 324 293.76 324 293.76 
C 324 293.76 324 293.76 324 293.76 
C 324 293.76 324 293.76 324 293.76 
C 324 293.76 324 293.76 324 293.76 
C 324 293.76 324 293.76 324 293.76 
C 324 293.76 324 293.76 324 293.76 
C 324 293.76 324 293.76 324 293.76 
z
"/>
  </clipPath>
 </defs>
</svg>
